<svg width="42" height="52" viewBox="0 0 42 52" fill="none" xmlns="http://www.w3.org/2000/svg">
<path d="M0 18.1395C0 18.1395 -1.52588e-05 0 20.9534 0C41.9069 0 41.9068 18.1395 41.9068 18.1395V52H0V18.1395Z" fill="#746E6E"/>
<path d="M2.95346 20.093C2.95346 20.093 2.95346 3 20.4535 3C37.9535 3 37.9535 20.093 37.9535 20.093V52H2.95346V20.093Z" fill="#0B0B0B"/>
<path d="M11.9557 20.093V3.00001C20.9534 3.00001 21.5998 2.73002 24.9534 8.00001C28.4534 13.5 27.9511 20.093 27.9511 20.093V52H11.9557V20.093Z" fill="#3C2424"/>
<path d="M1.95343 20.093C1.95343 20.093 1.95343 3 12.9534 3C23.9534 3 23.9534 20.093 23.9534 20.093V52H1.95343V20.093Z" fill="#694747"/>
<line x1="6.4534" y1="6" x2="6.4534" y2="52" stroke="#3B2424"/>
<line x1="12.4534" y1="3" x2="12.4534" y2="52" stroke="#3B2424"/>
<line x1="18.4534" y1="5" x2="18.4534" y2="52" stroke="#3B2424"/>
<circle cx="20.4534" cy="30.5" r="2.5" fill="#746E6E"/>
</svg>
