<svg width="26" height="44" viewBox="0 0 26 44" fill="none" xmlns="http://www.w3.org/2000/svg">
<line x1="13" y1="17" x2="13" y2="44" stroke="#927D71" stroke-width="6"/>
<line x1="11" y1="40.5" x2="4" y2="40.5" stroke="#927D71"/>
<line x1="11" y1="33.5" x2="4" y2="33.5" stroke="#927D71"/>
<rect x="12" y="40" width="6" height="6" transform="rotate(-180 12 40)" fill="#927D71"/>
<path fill-rule="evenodd" clip-rule="evenodd" d="M26 9.5C26 4.25329 21.7467 -1.85917e-07 16.5 -4.15258e-07L9.5 -7.21238e-07C4.25329 -9.50579e-07 -1.85917e-07 4.25329 -4.15258e-07 9.5C-6.44599e-07 14.7467 4.2533 19 9.5 19L16.5 19C21.7467 19 26 14.7467 26 9.5ZM21 12.5C21 11.1193 19.8807 10 18.5 10L7.5 10C6.11929 10 5 11.1193 5 12.5C5 13.8807 6.11929 15 7.5 15L18.5 15C19.8807 15 21 13.8807 21 12.5Z" fill="#927D71"/>
</svg>
