<svg width="43" height="50" viewBox="0 0 43 50" fill="none" xmlns="http://www.w3.org/2000/svg">
<path d="M36.6843 6H12.2281C12.2281 6 13.9906 6.85598 14.7457 8.07059C15.3739 9.0812 15.8246 11.1765 15.8246 11.1765C15.8246 11.1765 31.1684 11.1765 41 11.1765C40.8465 9.70672 40.416 8.62232 39.5615 7.55294C38.6559 6.41967 36.6843 6 36.6843 6Z" fill="#716B63"/>
<path d="M36.6843 16.3529H12.2281C12.2281 16.3529 13.9906 15.497 14.7457 14.2824C15.3739 13.2717 15.8246 11.1765 15.8246 11.1765C15.8246 11.1765 31.1684 11.1765 41 11.1765C40.8465 12.6462 40.416 13.7306 39.5615 14.8C38.6559 15.9333 36.6843 16.3529 36.6843 16.3529Z" fill="#716B63"/>
<path d="M12.2281 6H36.6843C36.6843 6 34.9218 6.71332 34.1667 7.72549C33.5385 8.56767 33.0878 10.3137 33.0878 10.3137H7.91232C7.91232 10.3137 8.49639 8.18526 9.35092 7.29412C10.2565 6.34972 12.2281 6 12.2281 6Z" fill="#CDCCC4"/>
<rect x="7.91232" y="10.3138" width="25.1754" height="35.3726" fill="#CDCCC4"/>
<path d="M28.7719 50H4.31577C4.31577 50 6.07827 49.2867 6.83332 48.2745C7.46156 47.4324 7.91227 45.6863 7.91227 45.6863H33.0877C33.0877 45.6863 32.5036 47.8148 31.6491 48.7059C30.7435 49.6503 28.7719 50 28.7719 50Z" fill="#CDCCC4"/>
<path d="M4.36975 50H29.1316C29.1316 50 27.3386 49.4332 26.5826 48.7059C25.9196 48.0682 25.4901 47.6471 25.4901 46.7647C15.5356 46.7647 9.95453 46.7647 1.52588e-05 46.7647C0.155476 47.6833 0.591383 48.3611 1.45659 49.0294C2.3735 49.7377 4.36975 50 4.36975 50Z" fill="#716B63"/>
<path d="M4.36975 43.5294H29.1316C29.1316 43.5294 27.3386 44.0963 26.5826 44.8236C25.9196 45.4613 25.4901 45.8824 25.4901 46.7647C15.5356 46.7647 9.95453 46.7647 1.52588e-05 46.7647C0.155476 45.8461 0.591383 45.1684 1.45659 44.5C2.3735 43.7917 4.36975 43.5294 4.36975 43.5294Z" fill="#716B63"/>
<path d="M34.6313 2.13523e-06C34.6313 2.13523e-06 33.6066 4.92665 32.3112 7.92301C30.9596 11.0492 30.0578 12.836 27.8199 15.5283C26.204 17.4723 24.7546 18.1269 23.1079 20.0491C20.5356 23.0516 17.8747 28.5473 17.8747 28.5473C17.8747 28.5473 18.129 24.3193 18.9912 21.7463C19.9237 18.9633 20.6254 16.9596 22.3076 14.142C24.1287 11.0919 25.676 9.66019 28.0443 6.93502C30.486 4.12562 34.6313 2.13523e-06 34.6313 2.13523e-06Z" fill="#DF4C43"/>
</svg>
