<svg width="39" height="50" viewBox="0 0 39 50" fill="none" xmlns="http://www.w3.org/2000/svg">
<path d="M35.586 6H11C11 6 14.6426 7.79391 14.5 10C14.3644 12.0987 11 14 11 14H35.586C35.586 14 37.2728 13.7158 38 13C38.8801 12.1337 39 10 39 10C39 10 38.7641 7.90931 38 7C37.226 6.07889 35.586 6 35.586 6Z" fill="#716B63"/>
<path d="M11 6H36C36 6 33.8853 6.38776 33 7.5C32.2603 8.42931 32 10 32 10V43C32 43 32.0164 47.4295 30.5 49C29.5902 49.9423 28 50 28 50H3L7 43V10C7 10 7.32078 8.30272 8 7.5C8.84609 6.50007 11 6 11 6Z" fill="#CDCCC4"/>
<path d="M3 43H28C28 43 25 44.6998 25 46.5C25 48.3002 28 50 28 50H3C3 50 0 48.3002 0 46.5C0 44.6998 3 43 3 43Z" fill="#716B63"/>
<path d="M33.6312 0C33.6312 0 32.6066 4.92665 31.3112 7.92301C29.9596 11.0492 29.0577 12.836 26.8198 15.5283C25.2039 17.4723 23.7546 18.1269 22.1079 20.0491C19.5356 23.0516 16.8747 28.5473 16.8747 28.5473C16.8747 28.5473 17.129 24.3193 17.9912 21.7463C18.9237 18.9633 19.6254 16.9596 21.3076 14.142C23.1287 11.0919 24.6759 9.66019 27.0443 6.93502C29.4859 4.12562 33.6312 0 33.6312 0Z" fill="#DF4C43"/>
</svg>
