<svg width="309" height="88" viewBox="0 0 309 88" fill="none" xmlns="http://www.w3.org/2000/svg">
<path d="M294 56L303 57.5L304 60L293 59.5L283 60L269.5 62L261 65.5L271.5 60L281.5 57L294 56Z" fill="#767676"/>
<path d="M252.5 68L255.5 63L267.5 55L281 50.5L292.5 48L304.5 48.5L307.5 58L298.5 56.5L292 56L284.5 56.5L275 58.5L267 61.5L261 65.5L257 70L252.5 68Z" fill="#BEBEBE"/>
<path d="M257 70L262 64.5L269.5 62L277 60.5L290.5 59.5H298.5L304 60.5L302 67L293 66.5H284L275 67L266.5 69L262 72L257 70Z" fill="#BEBEBE"/>
<path d="M252.596 24.0625C252.596 24.0625 261.681 13.6327 269.872 11.125C278.75 8.40732 293.702 12.8125 293.702 12.8125L308 49.9375C308 49.9375 298.993 47.4796 293.106 47.6875C286.622 47.9165 277.021 51.625 277.021 51.625L266.5 55.5L257 62L252.596 67.375V24.0625Z" fill="#E9E9E9"/>
<path d="M252.596 24.0625C252.596 24.0625 261.681 13.6327 269.872 11.125C278.75 8.40732 293.702 12.8125 293.702 12.8125L308 49.9375C308 49.9375 298.993 47.4796 293.106 47.6875C286.622 47.9165 277.021 51.625 277.021 51.625L266.5 55.5L257 62L252.596 67.375V24.0625Z" fill="url(#paint0_linear)"/>
<path d="M252.781 23.215C252.623 23.4419 252.68 23.7534 252.906 23.9108C253.133 24.0682 253.445 24.0119 253.602 23.785L252.781 23.215ZM260.578 16.3873L260.862 16.7983L260.862 16.7983L260.578 16.3873ZM274.898 10.3102L274.972 10.8047L274.972 10.8047L274.898 10.3102ZM289.027 11.3966L288.901 11.8804L288.901 11.8804L289.027 11.3966ZM293.315 13.2751C293.49 13.4888 293.805 13.5201 294.019 13.3451C294.233 13.1702 294.264 12.8551 294.089 12.6415L293.315 13.2751ZM252.035 66.9654C251.916 67.2148 252.023 67.513 252.272 67.6315C252.522 67.7499 252.82 67.6437 252.938 67.3942L252.035 66.9654ZM258.398 60.8667L258.077 60.4831L258.077 60.4831L258.398 60.8667ZM275.753 51.8905L275.91 52.3653L275.91 52.3653L275.753 51.8905ZM294.622 47.7981L294.597 47.2987L294.622 47.7981ZM304.273 48.4873L304.294 47.9877L304.294 47.9877L304.273 48.4873ZM307.487 50.1937C307.579 50.4541 307.865 50.5907 308.125 50.4987C308.386 50.4068 308.522 50.1212 308.43 49.8608L307.487 50.1937ZM259.323 65.8609C259.103 66.0265 259.058 66.3399 259.223 66.5608C259.389 66.7818 259.702 66.8266 259.923 66.661L259.323 65.8609ZM281.953 57.038L281.873 56.5445L281.953 57.038ZM298.659 56.6467L298.707 56.149L298.707 56.149L298.659 56.6467ZM303.579 57.3103L303.489 57.8021L303.489 57.8021L303.579 57.3103ZM307.153 58.9253C307.416 59.0117 307.698 58.8691 307.785 58.6068C307.871 58.3445 307.729 58.0619 307.466 57.9755L307.153 58.9253ZM260.593 65.5775C260.384 65.7588 260.363 66.0747 260.544 66.2829C260.725 66.4912 261.041 66.513 261.249 66.3317L260.593 65.5775ZM266.228 62.9342L266.397 63.405L266.397 63.405L266.228 62.9342ZM280.889 60.0159L280.846 59.5178L280.846 59.5178L280.889 60.0159ZM297.893 59.6245L297.908 59.1247L297.893 59.6245ZM304.057 60.7581C304.317 60.8524 304.604 60.7184 304.698 60.4588C304.792 60.1993 304.658 59.9124 304.399 59.8182L304.057 60.7581ZM261.933 71.1805C261.697 71.3245 261.623 71.6322 261.767 71.8679C261.911 72.1035 262.219 72.1778 262.454 72.0339L261.933 71.1805ZM268.339 68.5272L268.19 68.05L268.19 68.05L268.339 68.5272ZM280.919 66.5874L280.933 67.0872L280.919 66.5874ZM295.084 66.4938L295.083 65.9938L295.083 65.9938L295.084 66.4938ZM295.115 66.4937L295.116 66.9937L295.116 66.9937L295.115 66.4937ZM302.146 67.5004C302.416 67.5614 302.683 67.3926 302.744 67.1233C302.805 66.854 302.637 66.5862 302.367 66.5251L302.146 67.5004ZM253.602 23.785C255.521 21.0201 258.044 18.7512 260.862 16.7983L260.293 15.9764C257.409 17.9747 254.787 20.3235 252.781 23.215L253.602 23.785ZM260.862 16.7983C265.157 13.8226 269.782 11.5771 274.972 10.8047L274.824 9.81563C269.436 10.6176 264.668 12.9448 260.293 15.9764L260.862 16.7983ZM274.972 10.8047C279.684 10.1033 284.279 10.6755 288.901 11.8804L289.153 10.9128C284.451 9.68692 279.713 9.08795 274.824 9.81563L274.972 10.8047ZM288.901 11.8804C289.243 11.9695 289.663 12.0489 290.09 12.1304C290.525 12.2135 290.979 12.3006 291.416 12.4077C291.855 12.5151 292.26 12.6387 292.598 12.7893C292.941 12.942 293.177 13.1063 293.315 13.2751L294.089 12.6415C293.811 12.3019 293.416 12.0588 293.005 11.8758C292.589 11.6907 292.12 11.5504 291.654 11.4364C291.188 11.3222 290.71 11.2306 290.278 11.1482C289.838 11.0643 289.456 10.9916 289.153 10.9128L288.901 11.8804ZM252.938 67.3942C254.109 64.9291 256.467 63.1321 258.718 61.2504L258.077 60.4831C255.905 62.2988 253.322 64.2537 252.035 66.9654L252.938 67.3942ZM258.718 61.2504C263.585 57.1833 269.755 54.3979 275.91 52.3653L275.596 51.4158C269.386 53.4669 263.081 56.3011 258.077 60.4831L258.718 61.2504ZM275.91 52.3653C281.917 50.3815 288.314 48.6131 294.647 48.2975L294.597 47.2987C288.126 47.6213 281.624 49.4252 275.596 51.4158L275.91 52.3653ZM294.647 48.2975C296.251 48.2175 297.82 48.3519 299.411 48.5271C300.991 48.7011 302.608 48.9178 304.252 48.9868L304.294 47.9877C302.694 47.9206 301.132 47.7106 299.52 47.5331C297.92 47.3568 296.285 47.2146 294.597 47.2987L294.647 48.2975ZM304.252 48.9868C304.69 49.0052 305.471 49.1145 306.177 49.3444C306.53 49.4592 306.843 49.5973 307.08 49.755C307.322 49.9155 307.443 50.0672 307.487 50.1937L308.43 49.8608C308.285 49.4494 307.969 49.1448 307.634 48.9219C307.294 48.6963 306.888 48.5242 306.487 48.3935C305.684 48.1324 304.812 48.0095 304.294 47.9877L304.252 48.9868ZM259.923 66.661C266.326 61.8613 273.97 58.8383 282.033 57.5316L281.873 56.5445C273.67 57.8739 265.871 60.9528 259.323 65.8609L259.923 66.661ZM282.033 57.5316C287.506 56.6446 293.08 56.6104 298.611 57.1444L298.707 56.149C293.109 55.6086 287.447 55.6411 281.873 56.5445L282.033 57.5316ZM298.611 57.1444C300.329 57.3102 301.816 57.4947 303.489 57.8021L303.67 56.8185C301.96 56.5044 300.443 56.3165 298.707 56.149L298.611 57.1444ZM303.489 57.8021C304.841 58.0505 305.806 58.4817 307.153 58.9253L307.466 57.9755C306.219 57.5646 305.111 57.0834 303.67 56.8185L303.489 57.8021ZM261.249 66.3317C262.766 65.011 264.436 64.1058 266.397 63.405L266.06 62.4634C264.006 63.1977 262.221 64.1599 260.593 65.5775L261.249 66.3317ZM266.397 63.405C271.026 61.7506 275.984 60.9506 280.933 60.5139L280.846 59.5178C275.854 59.9583 270.802 60.7688 266.06 62.4634L266.397 63.405ZM280.933 60.5139C286.555 60.018 292.226 59.958 297.879 60.1243L297.908 59.1247C292.23 58.9577 286.517 59.0174 280.846 59.5178L280.933 60.5139ZM297.879 60.1243C298.927 60.1551 299.993 60.1451 301.071 60.2154C302.139 60.285 303.158 60.4316 304.057 60.7581L304.399 59.8182C303.371 59.4449 302.244 59.2897 301.136 59.2175C300.039 59.1459 298.901 59.1539 297.908 59.1247L297.879 60.1243ZM262.454 72.0339C264.413 70.8372 266.334 69.6786 268.488 69.0044L268.19 68.05C265.9 68.7666 263.878 69.992 261.933 71.1805L262.454 72.0339ZM268.488 69.0044C272.481 67.7552 276.716 67.206 280.933 67.0872L280.905 66.0876C276.623 66.2082 272.293 66.7664 268.19 68.05L268.488 69.0044ZM280.933 67.0872C285.638 66.9545 290.36 67.0079 295.086 66.9938L295.083 65.9938C290.376 66.0079 285.626 65.9545 280.905 66.0876L280.933 67.0872ZM295.086 66.9938L295.116 66.9937L295.113 65.9937L295.083 65.9938L295.086 66.9938ZM295.116 66.9937C297.573 66.9863 299.857 66.9815 302.146 67.5004L302.367 66.5251C299.949 65.9771 297.551 65.9864 295.113 65.9937L295.116 66.9937ZM293.172 12.492L308 50L308.93 49.6324L294.102 12.1243L293.172 12.492ZM303.901 48.5083L307.476 58.6333L308.419 58.3004L304.844 48.1754L303.901 48.5083ZM302.71 57.5083L303.901 60.8833L304.844 60.5504L303.653 57.1754L302.71 57.5083ZM303.9 59.7274L301.517 67.6024L302.474 67.892L304.857 60.017L303.9 59.7274ZM252 23.5V68.5H253V23.5H252ZM252.019 68.5087L262.743 73.0087L263.13 72.0866L252.406 67.5866L252.019 68.5087Z" fill="black"/>
<path d="M46.6916 40.5L166.56 40.5L229.657 40.5L249.573 40.5H255.069L256.5 40.5V61.5H256.438H256.37H256.299H256.225H256.146H256.064H255.978H255.889H255.796H255.699H255.599H255.495H255.387H255.276H255.161H255.043H254.922H254.796H254.668H254.536H254.4H254.261H254.118H253.972H253.823H253.67H253.514H253.354H253.191H253.025H252.856H252.683H252.506H252.327H252.144H251.958H251.769H251.576H251.381H251.182H250.979H250.774H250.566H250.354H250.139H249.921H249.7H249.476H249.249H249.019H248.785H248.549H248.31H248.067H247.822H247.573H247.322H247.068H246.81H246.55H246.287H246.021H245.752H245.48H245.206H244.928H244.648H244.365H244.079H243.79H243.499H243.204H242.907H242.607H242.305H242H241.692H241.381H241.068H240.752H240.434H240.113H239.789H239.462H239.133H238.802H238.468H238.131H237.792H237.45H237.106H236.76H236.411H236.059H235.705H235.349H234.99H234.628H234.265H233.899H233.53H233.16H232.786H232.411H232.033H231.653H231.271H230.886H230.5H230.111H229.719H229.326H228.93H228.532H228.132H227.73H227.326H226.919H226.511H226.1H225.688H225.273H224.856H224.437H224.016H223.593H223.168H222.741H222.312H221.881H221.449H221.014H220.577H220.139H219.698H219.256H218.812H218.366H217.918H217.468H217.016H216.563H216.108H215.651H215.193H214.732H214.27H213.806H213.341H212.874H212.405H211.934H211.462H210.988H210.513H210.036H209.558H209.077H208.596H208.112H207.628H207.141H206.654H206.164H205.674H205.181H204.688H204.193H203.696H203.198H202.699H202.198H201.696H201.193H200.688H200.182H199.675H199.166H198.656H198.145H197.632H197.119H196.604H196.088H195.57H195.052H194.532H194.011H193.489H192.966H192.442H191.916H191.39H190.862H190.334H189.804H189.274H188.742H188.209H187.676H187.141H186.605H186.069H185.531H184.993H184.454H183.914H183.372H182.831H182.288H181.744H181.2H180.654H180.108H179.562H179.014H178.466H177.916H177.367H176.816H176.265H175.713H175.16H174.607H174.053H173.499H172.943H172.388H171.831H171.274H170.717H170.159H169.6H169.041H168.482H167.922H167.361H166.8H166.239H165.677H165.114H164.552H163.989H163.425H162.861H162.297H161.732H161.168H160.602H160.037H159.471H158.905H158.339H157.772H157.205H156.638H156.071H155.504H154.936H154.369H153.801H153.233H152.665H152.096H151.528H150.96H150.391H149.823H149.254H148.686H148.117H147.549H146.98H146.412H145.843H145.275H144.707H144.138H143.57H143.002H142.435H141.867H141.299H140.732H140.165H139.598H139.031H138.465H137.898H137.332H136.766H136.201H135.636H135.071H134.506H133.942H133.378H132.815H132.252H131.689H131.127H130.565H130.004H129.443H128.882H128.322H127.763H127.203H126.645H126.087H125.53H124.973H124.416H123.861H123.306H122.751H122.197H121.644H121.091H120.54H119.988H119.438H118.888H118.339H117.791H117.243H116.696H116.15H115.605H115.061H114.517H113.975H113.433H112.892H112.352H111.812H111.274H110.737H110.2H109.665H109.13H108.597H108.064H107.532H107.002H106.472H105.944H105.416H104.89H104.365H103.841H103.318H102.796H102.275H101.755H101.237H100.72H100.204H99.6887H99.1751H98.6628H98.1516H97.6418H97.1332H96.626H96.12H95.6154H95.1121H94.6101H94.1095H93.6103H93.1125H92.6161H92.1212H91.6276H91.1355H90.6449H90.1557H89.6681H89.1819H88.6972H88.2141H87.7326H87.2526H86.7741H86.2973H85.822H85.3484H84.8764H84.406H83.9373H83.4703H83.0049H82.5413H82.0793H81.6191H81.1606H80.7039H80.249H79.7958H79.3444H78.8948H78.4471H78.0012H77.5571H77.1149H76.6746H76.2362H75.7997H75.3651H74.9324H74.5017H74.0729H73.6461H73.2213H72.7986H72.3778H71.959H71.5423H71.1277H70.7151H70.3046H69.8963H69.49H69.0858H68.6838H68.284H67.8863H67.4908H67.0975H66.7065H66.3176H65.931H65.5466H65.1645H64.7847H64.4071H64.0319H63.659H63.2884H62.9202H62.5544H62.1909H61.8298H61.4711H61.1149H60.761H60.4097H60.0607H59.7143H59.3703H59.0289H58.6899H58.3535H58.0196H57.6883H57.3596H57.0334H56.7098H56.3889H56.0706H55.7549H55.4419H55.1315H54.8238H54.5188H54.2166H53.917H53.6202H53.3261H53.0349H52.7463H52.4606H52.1777H51.8976H51.6203H51.3459H51.0744H50.8057H50.5399H50.277H50.0171H49.76H49.5059H49.2548H49.0066H48.7615H48.5193H48.2801H48.044H47.8109H47.5809H47.3539H47.1301H46.9093H46.6916C37.4014 61.5 25.7864 58.7682 16.4626 56.0204C11.8074 54.6485 7.73577 53.2764 4.82817 52.2474C3.37451 51.7329 2.21216 51.3043 1.41372 51.0046C1.40966 51.003 1.40561 51.0015 1.40157 51C1.40561 50.9985 1.40966 50.997 1.41372 50.9954C2.21216 50.6957 3.37451 50.2671 4.82817 49.7526C7.73577 48.7236 11.8074 47.3515 16.4626 45.9796C25.7864 43.2318 37.4014 40.5 46.6916 40.5Z" fill="#868686"/>
<path d="M46.6916 40.5L166.56 40.5L229.657 40.5L249.573 40.5H255.069L256.5 40.5V61.5H256.438H256.37H256.299H256.225H256.146H256.064H255.978H255.889H255.796H255.699H255.599H255.495H255.387H255.276H255.161H255.043H254.922H254.796H254.668H254.536H254.4H254.261H254.118H253.972H253.823H253.67H253.514H253.354H253.191H253.025H252.856H252.683H252.506H252.327H252.144H251.958H251.769H251.576H251.381H251.182H250.979H250.774H250.566H250.354H250.139H249.921H249.7H249.476H249.249H249.019H248.785H248.549H248.31H248.067H247.822H247.573H247.322H247.068H246.81H246.55H246.287H246.021H245.752H245.48H245.206H244.928H244.648H244.365H244.079H243.79H243.499H243.204H242.907H242.607H242.305H242H241.692H241.381H241.068H240.752H240.434H240.113H239.789H239.462H239.133H238.802H238.468H238.131H237.792H237.45H237.106H236.76H236.411H236.059H235.705H235.349H234.99H234.628H234.265H233.899H233.53H233.16H232.786H232.411H232.033H231.653H231.271H230.886H230.5H230.111H229.719H229.326H228.93H228.532H228.132H227.73H227.326H226.919H226.511H226.1H225.688H225.273H224.856H224.437H224.016H223.593H223.168H222.741H222.312H221.881H221.449H221.014H220.577H220.139H219.698H219.256H218.812H218.366H217.918H217.468H217.016H216.563H216.108H215.651H215.193H214.732H214.27H213.806H213.341H212.874H212.405H211.934H211.462H210.988H210.513H210.036H209.558H209.077H208.596H208.112H207.628H207.141H206.654H206.164H205.674H205.181H204.688H204.193H203.696H203.198H202.699H202.198H201.696H201.193H200.688H200.182H199.675H199.166H198.656H198.145H197.632H197.119H196.604H196.088H195.57H195.052H194.532H194.011H193.489H192.966H192.442H191.916H191.39H190.862H190.334H189.804H189.274H188.742H188.209H187.676H187.141H186.605H186.069H185.531H184.993H184.454H183.914H183.372H182.831H182.288H181.744H181.2H180.654H180.108H179.562H179.014H178.466H177.916H177.367H176.816H176.265H175.713H175.16H174.607H174.053H173.499H172.943H172.388H171.831H171.274H170.717H170.159H169.6H169.041H168.482H167.922H167.361H166.8H166.239H165.677H165.114H164.552H163.989H163.425H162.861H162.297H161.732H161.168H160.602H160.037H159.471H158.905H158.339H157.772H157.205H156.638H156.071H155.504H154.936H154.369H153.801H153.233H152.665H152.096H151.528H150.96H150.391H149.823H149.254H148.686H148.117H147.549H146.98H146.412H145.843H145.275H144.707H144.138H143.57H143.002H142.435H141.867H141.299H140.732H140.165H139.598H139.031H138.465H137.898H137.332H136.766H136.201H135.636H135.071H134.506H133.942H133.378H132.815H132.252H131.689H131.127H130.565H130.004H129.443H128.882H128.322H127.763H127.203H126.645H126.087H125.53H124.973H124.416H123.861H123.306H122.751H122.197H121.644H121.091H120.54H119.988H119.438H118.888H118.339H117.791H117.243H116.696H116.15H115.605H115.061H114.517H113.975H113.433H112.892H112.352H111.812H111.274H110.737H110.2H109.665H109.13H108.597H108.064H107.532H107.002H106.472H105.944H105.416H104.89H104.365H103.841H103.318H102.796H102.275H101.755H101.237H100.72H100.204H99.6887H99.1751H98.6628H98.1516H97.6418H97.1332H96.626H96.12H95.6154H95.1121H94.6101H94.1095H93.6103H93.1125H92.6161H92.1212H91.6276H91.1355H90.6449H90.1557H89.6681H89.1819H88.6972H88.2141H87.7326H87.2526H86.7741H86.2973H85.822H85.3484H84.8764H84.406H83.9373H83.4703H83.0049H82.5413H82.0793H81.6191H81.1606H80.7039H80.249H79.7958H79.3444H78.8948H78.4471H78.0012H77.5571H77.1149H76.6746H76.2362H75.7997H75.3651H74.9324H74.5017H74.0729H73.6461H73.2213H72.7986H72.3778H71.959H71.5423H71.1277H70.7151H70.3046H69.8963H69.49H69.0858H68.6838H68.284H67.8863H67.4908H67.0975H66.7065H66.3176H65.931H65.5466H65.1645H64.7847H64.4071H64.0319H63.659H63.2884H62.9202H62.5544H62.1909H61.8298H61.4711H61.1149H60.761H60.4097H60.0607H59.7143H59.3703H59.0289H58.6899H58.3535H58.0196H57.6883H57.3596H57.0334H56.7098H56.3889H56.0706H55.7549H55.4419H55.1315H54.8238H54.5188H54.2166H53.917H53.6202H53.3261H53.0349H52.7463H52.4606H52.1777H51.8976H51.6203H51.3459H51.0744H50.8057H50.5399H50.277H50.0171H49.76H49.5059H49.2548H49.0066H48.7615H48.5193H48.2801H48.044H47.8109H47.5809H47.3539H47.1301H46.9093H46.6916C37.4014 61.5 25.7864 58.7682 16.4626 56.0204C11.8074 54.6485 7.73577 53.2764 4.82817 52.2474C3.37451 51.7329 2.21216 51.3043 1.41372 51.0046C1.40966 51.003 1.40561 51.0015 1.40157 51C1.40561 50.9985 1.40966 50.997 1.41372 50.9954C2.21216 50.6957 3.37451 50.2671 4.82817 49.7526C7.73577 48.7236 11.8074 47.3515 16.4626 45.9796C25.7864 43.2318 37.4014 40.5 46.6916 40.5Z" fill="url(#paint1_linear)"/>
<path d="M46.6916 40.5L166.56 40.5L229.657 40.5L249.573 40.5H255.069L256.5 40.5V61.5H256.438H256.37H256.299H256.225H256.146H256.064H255.978H255.889H255.796H255.699H255.599H255.495H255.387H255.276H255.161H255.043H254.922H254.796H254.668H254.536H254.4H254.261H254.118H253.972H253.823H253.67H253.514H253.354H253.191H253.025H252.856H252.683H252.506H252.327H252.144H251.958H251.769H251.576H251.381H251.182H250.979H250.774H250.566H250.354H250.139H249.921H249.7H249.476H249.249H249.019H248.785H248.549H248.31H248.067H247.822H247.573H247.322H247.068H246.81H246.55H246.287H246.021H245.752H245.48H245.206H244.928H244.648H244.365H244.079H243.79H243.499H243.204H242.907H242.607H242.305H242H241.692H241.381H241.068H240.752H240.434H240.113H239.789H239.462H239.133H238.802H238.468H238.131H237.792H237.45H237.106H236.76H236.411H236.059H235.705H235.349H234.99H234.628H234.265H233.899H233.53H233.16H232.786H232.411H232.033H231.653H231.271H230.886H230.5H230.111H229.719H229.326H228.93H228.532H228.132H227.73H227.326H226.919H226.511H226.1H225.688H225.273H224.856H224.437H224.016H223.593H223.168H222.741H222.312H221.881H221.449H221.014H220.577H220.139H219.698H219.256H218.812H218.366H217.918H217.468H217.016H216.563H216.108H215.651H215.193H214.732H214.27H213.806H213.341H212.874H212.405H211.934H211.462H210.988H210.513H210.036H209.558H209.077H208.596H208.112H207.628H207.141H206.654H206.164H205.674H205.181H204.688H204.193H203.696H203.198H202.699H202.198H201.696H201.193H200.688H200.182H199.675H199.166H198.656H198.145H197.632H197.119H196.604H196.088H195.57H195.052H194.532H194.011H193.489H192.966H192.442H191.916H191.39H190.862H190.334H189.804H189.274H188.742H188.209H187.676H187.141H186.605H186.069H185.531H184.993H184.454H183.914H183.372H182.831H182.288H181.744H181.2H180.654H180.108H179.562H179.014H178.466H177.916H177.367H176.816H176.265H175.713H175.16H174.607H174.053H173.499H172.943H172.388H171.831H171.274H170.717H170.159H169.6H169.041H168.482H167.922H167.361H166.8H166.239H165.677H165.114H164.552H163.989H163.425H162.861H162.297H161.732H161.168H160.602H160.037H159.471H158.905H158.339H157.772H157.205H156.638H156.071H155.504H154.936H154.369H153.801H153.233H152.665H152.096H151.528H150.96H150.391H149.823H149.254H148.686H148.117H147.549H146.98H146.412H145.843H145.275H144.707H144.138H143.57H143.002H142.435H141.867H141.299H140.732H140.165H139.598H139.031H138.465H137.898H137.332H136.766H136.201H135.636H135.071H134.506H133.942H133.378H132.815H132.252H131.689H131.127H130.565H130.004H129.443H128.882H128.322H127.763H127.203H126.645H126.087H125.53H124.973H124.416H123.861H123.306H122.751H122.197H121.644H121.091H120.54H119.988H119.438H118.888H118.339H117.791H117.243H116.696H116.15H115.605H115.061H114.517H113.975H113.433H112.892H112.352H111.812H111.274H110.737H110.2H109.665H109.13H108.597H108.064H107.532H107.002H106.472H105.944H105.416H104.89H104.365H103.841H103.318H102.796H102.275H101.755H101.237H100.72H100.204H99.6887H99.1751H98.6628H98.1516H97.6418H97.1332H96.626H96.12H95.6154H95.1121H94.6101H94.1095H93.6103H93.1125H92.6161H92.1212H91.6276H91.1355H90.6449H90.1557H89.6681H89.1819H88.6972H88.2141H87.7326H87.2526H86.7741H86.2973H85.822H85.3484H84.8764H84.406H83.9373H83.4703H83.0049H82.5413H82.0793H81.6191H81.1606H80.7039H80.249H79.7958H79.3444H78.8948H78.4471H78.0012H77.5571H77.1149H76.6746H76.2362H75.7997H75.3651H74.9324H74.5017H74.0729H73.6461H73.2213H72.7986H72.3778H71.959H71.5423H71.1277H70.7151H70.3046H69.8963H69.49H69.0858H68.6838H68.284H67.8863H67.4908H67.0975H66.7065H66.3176H65.931H65.5466H65.1645H64.7847H64.4071H64.0319H63.659H63.2884H62.9202H62.5544H62.1909H61.8298H61.4711H61.1149H60.761H60.4097H60.0607H59.7143H59.3703H59.0289H58.6899H58.3535H58.0196H57.6883H57.3596H57.0334H56.7098H56.3889H56.0706H55.7549H55.4419H55.1315H54.8238H54.5188H54.2166H53.917H53.6202H53.3261H53.0349H52.7463H52.4606H52.1777H51.8976H51.6203H51.3459H51.0744H50.8057H50.5399H50.277H50.0171H49.76H49.5059H49.2548H49.0066H48.7615H48.5193H48.2801H48.044H47.8109H47.5809H47.3539H47.1301H46.9093H46.6916C37.4014 61.5 25.7864 58.7682 16.4626 56.0204C11.8074 54.6485 7.73577 53.2764 4.82817 52.2474C3.37451 51.7329 2.21216 51.3043 1.41372 51.0046C1.40966 51.003 1.40561 51.0015 1.40157 51C1.40561 50.9985 1.40966 50.997 1.41372 50.9954C2.21216 50.6957 3.37451 50.2671 4.82817 49.7526C7.73577 48.7236 11.8074 47.3515 16.4626 45.9796C25.7864 43.2318 37.4014 40.5 46.6916 40.5Z" stroke="black"/>
<g style="mix-blend-mode:screen" opacity="0.5">
<path d="M46.6916 40.5L166.56 40.5L229.657 40.5L249.573 40.5H255.069L256.5 40.5V61.5H256.438H256.37H256.299H256.225H256.146H256.064H255.978H255.889H255.796H255.699H255.599H255.495H255.387H255.276H255.161H255.043H254.922H254.796H254.668H254.536H254.4H254.261H254.118H253.972H253.823H253.67H253.514H253.354H253.191H253.025H252.856H252.683H252.506H252.327H252.144H251.958H251.769H251.576H251.381H251.182H250.979H250.774H250.566H250.354H250.139H249.921H249.7H249.476H249.249H249.019H248.785H248.549H248.31H248.067H247.822H247.573H247.322H247.068H246.81H246.55H246.287H246.021H245.752H245.48H245.206H244.928H244.648H244.365H244.079H243.79H243.499H243.204H242.907H242.607H242.305H242H241.692H241.381H241.068H240.752H240.434H240.113H239.789H239.462H239.133H238.802H238.468H238.131H237.792H237.45H237.106H236.76H236.411H236.059H235.705H235.349H234.99H234.628H234.265H233.899H233.53H233.16H232.786H232.411H232.033H231.653H231.271H230.886H230.5H230.111H229.719H229.326H228.93H228.532H228.132H227.73H227.326H226.919H226.511H226.1H225.688H225.273H224.856H224.437H224.016H223.593H223.168H222.741H222.312H221.881H221.449H221.014H220.577H220.139H219.698H219.256H218.812H218.366H217.918H217.468H217.016H216.563H216.108H215.651H215.193H214.732H214.27H213.806H213.341H212.874H212.405H211.934H211.462H210.988H210.513H210.036H209.558H209.077H208.596H208.112H207.628H207.141H206.654H206.164H205.674H205.181H204.688H204.193H203.696H203.198H202.699H202.198H201.696H201.193H200.688H200.182H199.675H199.166H198.656H198.145H197.632H197.119H196.604H196.088H195.57H195.052H194.532H194.011H193.489H192.966H192.442H191.916H191.39H190.862H190.334H189.804H189.274H188.742H188.209H187.676H187.141H186.605H186.069H185.531H184.993H184.454H183.914H183.372H182.831H182.288H181.744H181.2H180.654H180.108H179.562H179.014H178.466H177.916H177.367H176.816H176.265H175.713H175.16H174.607H174.053H173.499H172.943H172.388H171.831H171.274H170.717H170.159H169.6H169.041H168.482H167.922H167.361H166.8H166.239H165.677H165.114H164.552H163.989H163.425H162.861H162.297H161.732H161.168H160.602H160.037H159.471H158.905H158.339H157.772H157.205H156.638H156.071H155.504H154.936H154.369H153.801H153.233H152.665H152.096H151.528H150.96H150.391H149.823H149.254H148.686H148.117H147.549H146.98H146.412H145.843H145.275H144.707H144.138H143.57H143.002H142.435H141.867H141.299H140.732H140.165H139.598H139.031H138.465H137.898H137.332H136.766H136.201H135.636H135.071H134.506H133.942H133.378H132.815H132.252H131.689H131.127H130.565H130.004H129.443H128.882H128.322H127.763H127.203H126.645H126.087H125.53H124.973H124.416H123.861H123.306H122.751H122.197H121.644H121.091H120.54H119.988H119.438H118.888H118.339H117.791H117.243H116.696H116.15H115.605H115.061H114.517H113.975H113.433H112.892H112.352H111.812H111.274H110.737H110.2H109.665H109.13H108.597H108.064H107.532H107.002H106.472H105.944H105.416H104.89H104.365H103.841H103.318H102.796H102.275H101.755H101.237H100.72H100.204H99.6887H99.1751H98.6628H98.1516H97.6418H97.1332H96.626H96.12H95.6154H95.1121H94.6101H94.1095H93.6103H93.1125H92.6161H92.1212H91.6276H91.1355H90.6449H90.1557H89.6681H89.1819H88.6972H88.2141H87.7326H87.2526H86.7741H86.2973H85.822H85.3484H84.8764H84.406H83.9373H83.4703H83.0049H82.5413H82.0793H81.6191H81.1606H80.7039H80.249H79.7958H79.3444H78.8948H78.4471H78.0012H77.5571H77.1149H76.6746H76.2362H75.7997H75.3651H74.9324H74.5017H74.0729H73.6461H73.2213H72.7986H72.3778H71.959H71.5423H71.1277H70.7151H70.3046H69.8963H69.49H69.0858H68.6838H68.284H67.8863H67.4908H67.0975H66.7065H66.3176H65.931H65.5466H65.1645H64.7847H64.4071H64.0319H63.659H63.2884H62.9202H62.5544H62.1909H61.8298H61.4711H61.1149H60.761H60.4097H60.0607H59.7143H59.3703H59.0289H58.6899H58.3535H58.0196H57.6883H57.3596H57.0334H56.7098H56.3889H56.0706H55.7549H55.4419H55.1315H54.8238H54.5188H54.2166H53.917H53.6202H53.3262H53.0349H52.7463H52.4606H52.1777H51.8976H51.6203H51.3459H51.0744H50.8057H50.5399H50.277H50.0171H49.76H49.5059H49.2548H49.0066H48.7615H48.5193H48.2801H48.044H47.8109H47.5809H47.3539H47.1301H46.9093H46.6916C37.4014 61.5 25.7864 58.7682 16.4626 56.0204C11.8074 54.6485 7.73577 53.2764 4.82817 52.2474C3.37451 51.7329 2.21216 51.3043 1.41372 51.0046C1.40966 51.003 1.40561 51.0015 1.40157 51C1.40561 50.9985 1.40966 50.997 1.41372 50.9954C2.21216 50.6957 3.37451 50.2671 4.82817 49.7526C7.73577 48.7236 11.8074 47.3515 16.4626 45.9796C25.7864 43.2318 37.4014 40.5 46.6916 40.5Z" fill="#868686"/>
<path d="M46.6916 40.5L166.56 40.5L229.657 40.5L249.573 40.5H255.069L256.5 40.5V61.5H256.438H256.37H256.299H256.225H256.146H256.064H255.978H255.889H255.796H255.699H255.599H255.495H255.387H255.276H255.161H255.043H254.922H254.796H254.668H254.536H254.4H254.261H254.118H253.972H253.823H253.67H253.514H253.354H253.191H253.025H252.856H252.683H252.506H252.327H252.144H251.958H251.769H251.576H251.381H251.182H250.979H250.774H250.566H250.354H250.139H249.921H249.7H249.476H249.249H249.019H248.785H248.549H248.31H248.067H247.822H247.573H247.322H247.068H246.81H246.55H246.287H246.021H245.752H245.48H245.206H244.928H244.648H244.365H244.079H243.79H243.499H243.204H242.907H242.607H242.305H242H241.692H241.381H241.068H240.752H240.434H240.113H239.789H239.462H239.133H238.802H238.468H238.131H237.792H237.45H237.106H236.76H236.411H236.059H235.705H235.349H234.99H234.628H234.265H233.899H233.53H233.16H232.786H232.411H232.033H231.653H231.271H230.886H230.5H230.111H229.719H229.326H228.93H228.532H228.132H227.73H227.326H226.919H226.511H226.1H225.688H225.273H224.856H224.437H224.016H223.593H223.168H222.741H222.312H221.881H221.449H221.014H220.577H220.139H219.698H219.256H218.812H218.366H217.918H217.468H217.016H216.563H216.108H215.651H215.193H214.732H214.27H213.806H213.341H212.874H212.405H211.934H211.462H210.988H210.513H210.036H209.558H209.077H208.596H208.112H207.628H207.141H206.654H206.164H205.674H205.181H204.688H204.193H203.696H203.198H202.699H202.198H201.696H201.193H200.688H200.182H199.675H199.166H198.656H198.145H197.632H197.119H196.604H196.088H195.57H195.052H194.532H194.011H193.489H192.966H192.442H191.916H191.39H190.862H190.334H189.804H189.274H188.742H188.209H187.676H187.141H186.605H186.069H185.531H184.993H184.454H183.914H183.372H182.831H182.288H181.744H181.2H180.654H180.108H179.562H179.014H178.466H177.916H177.367H176.816H176.265H175.713H175.16H174.607H174.053H173.499H172.943H172.388H171.831H171.274H170.717H170.159H169.6H169.041H168.482H167.922H167.361H166.8H166.239H165.677H165.114H164.552H163.989H163.425H162.861H162.297H161.732H161.168H160.602H160.037H159.471H158.905H158.339H157.772H157.205H156.638H156.071H155.504H154.936H154.369H153.801H153.233H152.665H152.096H151.528H150.96H150.391H149.823H149.254H148.686H148.117H147.549H146.98H146.412H145.843H145.275H144.707H144.138H143.57H143.002H142.435H141.867H141.299H140.732H140.165H139.598H139.031H138.465H137.898H137.332H136.766H136.201H135.636H135.071H134.506H133.942H133.378H132.815H132.252H131.689H131.127H130.565H130.004H129.443H128.882H128.322H127.763H127.203H126.645H126.087H125.53H124.973H124.416H123.861H123.306H122.751H122.197H121.644H121.091H120.54H119.988H119.438H118.888H118.339H117.791H117.243H116.696H116.15H115.605H115.061H114.517H113.975H113.433H112.892H112.352H111.812H111.274H110.737H110.2H109.665H109.13H108.597H108.064H107.532H107.002H106.472H105.944H105.416H104.89H104.365H103.841H103.318H102.796H102.275H101.755H101.237H100.72H100.204H99.6887H99.1751H98.6628H98.1516H97.6418H97.1332H96.626H96.12H95.6154H95.1121H94.6101H94.1095H93.6103H93.1125H92.6161H92.1212H91.6276H91.1355H90.6449H90.1557H89.6681H89.1819H88.6972H88.2141H87.7326H87.2526H86.7741H86.2973H85.822H85.3484H84.8764H84.406H83.9373H83.4703H83.0049H82.5413H82.0793H81.6191H81.1606H80.7039H80.249H79.7958H79.3444H78.8948H78.4471H78.0012H77.5571H77.1149H76.6746H76.2362H75.7997H75.3651H74.9324H74.5017H74.0729H73.6461H73.2213H72.7986H72.3778H71.959H71.5423H71.1277H70.7151H70.3046H69.8963H69.49H69.0858H68.6838H68.284H67.8863H67.4908H67.0975H66.7065H66.3176H65.931H65.5466H65.1645H64.7847H64.4071H64.0319H63.659H63.2884H62.9202H62.5544H62.1909H61.8298H61.4711H61.1149H60.761H60.4097H60.0607H59.7143H59.3703H59.0289H58.6899H58.3535H58.0196H57.6883H57.3596H57.0334H56.7098H56.3889H56.0706H55.7549H55.4419H55.1315H54.8238H54.5188H54.2166H53.917H53.6202H53.3262H53.0349H52.7463H52.4606H52.1777H51.8976H51.6203H51.3459H51.0744H50.8057H50.5399H50.277H50.0171H49.76H49.5059H49.2548H49.0066H48.7615H48.5193H48.2801H48.044H47.8109H47.5809H47.3539H47.1301H46.9093H46.6916C37.4014 61.5 25.7864 58.7682 16.4626 56.0204C11.8074 54.6485 7.73577 53.2764 4.82817 52.2474C3.37451 51.7329 2.21216 51.3043 1.41372 51.0046C1.40966 51.003 1.40561 51.0015 1.40157 51C1.40561 50.9985 1.40966 50.997 1.41372 50.9954C2.21216 50.6957 3.37451 50.2671 4.82817 49.7526C7.73577 48.7236 11.8074 47.3515 16.4626 45.9796C25.7864 43.2318 37.4014 40.5 46.6916 40.5Z" fill="url(#paint2_angular)"/>
<path d="M46.6916 40.5L166.56 40.5L229.657 40.5L249.573 40.5H255.069L256.5 40.5V61.5H256.438H256.37H256.299H256.225H256.146H256.064H255.978H255.889H255.796H255.699H255.599H255.495H255.387H255.276H255.161H255.043H254.922H254.796H254.668H254.536H254.4H254.261H254.118H253.972H253.823H253.67H253.514H253.354H253.191H253.025H252.856H252.683H252.506H252.327H252.144H251.958H251.769H251.576H251.381H251.182H250.979H250.774H250.566H250.354H250.139H249.921H249.7H249.476H249.249H249.019H248.785H248.549H248.31H248.067H247.822H247.573H247.322H247.068H246.81H246.55H246.287H246.021H245.752H245.48H245.206H244.928H244.648H244.365H244.079H243.79H243.499H243.204H242.907H242.607H242.305H242H241.692H241.381H241.068H240.752H240.434H240.113H239.789H239.462H239.133H238.802H238.468H238.131H237.792H237.45H237.106H236.76H236.411H236.059H235.705H235.349H234.99H234.628H234.265H233.899H233.53H233.16H232.786H232.411H232.033H231.653H231.271H230.886H230.5H230.111H229.719H229.326H228.93H228.532H228.132H227.73H227.326H226.919H226.511H226.1H225.688H225.273H224.856H224.437H224.016H223.593H223.168H222.741H222.312H221.881H221.449H221.014H220.577H220.139H219.698H219.256H218.812H218.366H217.918H217.468H217.016H216.563H216.108H215.651H215.193H214.732H214.27H213.806H213.341H212.874H212.405H211.934H211.462H210.988H210.513H210.036H209.558H209.077H208.596H208.112H207.628H207.141H206.654H206.164H205.674H205.181H204.688H204.193H203.696H203.198H202.699H202.198H201.696H201.193H200.688H200.182H199.675H199.166H198.656H198.145H197.632H197.119H196.604H196.088H195.57H195.052H194.532H194.011H193.489H192.966H192.442H191.916H191.39H190.862H190.334H189.804H189.274H188.742H188.209H187.676H187.141H186.605H186.069H185.531H184.993H184.454H183.914H183.372H182.831H182.288H181.744H181.2H180.654H180.108H179.562H179.014H178.466H177.916H177.367H176.816H176.265H175.713H175.16H174.607H174.053H173.499H172.943H172.388H171.831H171.274H170.717H170.159H169.6H169.041H168.482H167.922H167.361H166.8H166.239H165.677H165.114H164.552H163.989H163.425H162.861H162.297H161.732H161.168H160.602H160.037H159.471H158.905H158.339H157.772H157.205H156.638H156.071H155.504H154.936H154.369H153.801H153.233H152.665H152.096H151.528H150.96H150.391H149.823H149.254H148.686H148.117H147.549H146.98H146.412H145.843H145.275H144.707H144.138H143.57H143.002H142.435H141.867H141.299H140.732H140.165H139.598H139.031H138.465H137.898H137.332H136.766H136.201H135.636H135.071H134.506H133.942H133.378H132.815H132.252H131.689H131.127H130.565H130.004H129.443H128.882H128.322H127.763H127.203H126.645H126.087H125.53H124.973H124.416H123.861H123.306H122.751H122.197H121.644H121.091H120.54H119.988H119.438H118.888H118.339H117.791H117.243H116.696H116.15H115.605H115.061H114.517H113.975H113.433H112.892H112.352H111.812H111.274H110.737H110.2H109.665H109.13H108.597H108.064H107.532H107.002H106.472H105.944H105.416H104.89H104.365H103.841H103.318H102.796H102.275H101.755H101.237H100.72H100.204H99.6887H99.1751H98.6628H98.1516H97.6418H97.1332H96.626H96.12H95.6154H95.1121H94.6101H94.1095H93.6103H93.1125H92.6161H92.1212H91.6276H91.1355H90.6449H90.1557H89.6681H89.1819H88.6972H88.2141H87.7326H87.2526H86.7741H86.2973H85.822H85.3484H84.8764H84.406H83.9373H83.4703H83.0049H82.5413H82.0793H81.6191H81.1606H80.7039H80.249H79.7958H79.3444H78.8948H78.4471H78.0012H77.5571H77.1149H76.6746H76.2362H75.7997H75.3651H74.9324H74.5017H74.0729H73.6461H73.2213H72.7986H72.3778H71.959H71.5423H71.1277H70.7151H70.3046H69.8963H69.49H69.0858H68.6838H68.284H67.8863H67.4908H67.0975H66.7065H66.3176H65.931H65.5466H65.1645H64.7847H64.4071H64.0319H63.659H63.2884H62.9202H62.5544H62.1909H61.8298H61.4711H61.1149H60.761H60.4097H60.0607H59.7143H59.3703H59.0289H58.6899H58.3535H58.0196H57.6883H57.3596H57.0334H56.7098H56.3889H56.0706H55.7549H55.4419H55.1315H54.8238H54.5188H54.2166H53.917H53.6202H53.3262H53.0349H52.7463H52.4606H52.1777H51.8976H51.6203H51.3459H51.0744H50.8057H50.5399H50.277H50.0171H49.76H49.5059H49.2548H49.0066H48.7615H48.5193H48.2801H48.044H47.8109H47.5809H47.3539H47.1301H46.9093H46.6916C37.4014 61.5 25.7864 58.7682 16.4626 56.0204C11.8074 54.6485 7.73577 53.2764 4.82817 52.2474C3.37451 51.7329 2.21216 51.3043 1.41372 51.0046C1.40966 51.003 1.40561 51.0015 1.40157 51C1.40561 50.9985 1.40966 50.997 1.41372 50.9954C2.21216 50.6957 3.37451 50.2671 4.82817 49.7526C7.73577 48.7236 11.8074 47.3515 16.4626 45.9796C25.7864 43.2318 37.4014 40.5 46.6916 40.5Z" stroke="black"/>
</g>
<path d="M253.494 20.5383L253.494 20.5383L253.486 20.5451C252.176 21.6825 250.207 23.0998 247.569 24.7993C246.674 22.2924 246.236 20.0446 246.236 18.0502C246.236 16.5809 246.678 15.5603 247.492 14.8923C248.325 14.2087 249.629 13.8243 251.493 13.8243C252.945 13.8243 253.941 14.1509 254.572 14.716C255.192 15.2718 255.543 16.1346 255.543 17.4015C255.543 18.285 254.946 19.3309 253.494 20.5383ZM247.964 73.5C253.981 73.5 259.927 71.9109 265.797 68.7481C271.046 71.4792 276.37 72.8513 281.764 72.8513C284.462 72.8513 286.506 72.3557 287.76 71.2428C288.422 70.6559 288.875 69.7522 289.167 68.6057C289.459 67.4543 289.6 66.0114 289.6 64.2896C289.6 61.7737 288.977 59.7947 287.645 58.4476C286.311 57.0995 284.35 56.4691 281.857 56.4691C281.321 56.4691 280.753 56.426 280.151 56.3386C283.469 51.8596 285.27 47.3214 285.513 42.7285C285.576 41.7861 285.519 40.9826 285.312 40.3448C285.125 39.4955 284.313 38.8258 283.2 38.2694C282.04 37.6584 280.365 37.3803 278.236 37.3803C275.724 37.3803 273.703 37.7233 272.213 38.4502C270.703 39.187 269.74 40.32 269.392 41.8423C268.765 44.4008 267.68 46.9124 266.133 49.3776C262.188 46.2339 258.506 42.4421 255.091 37.9989C259.598 34.9549 263.131 32.1613 265.68 29.6179C269.289 26.0795 271.121 22.0644 271.121 17.5869C271.121 12.3459 269.471 8.15644 266.131 5.08013C262.787 1.99945 257.91 0.5 251.586 0.5C245.256 0.5 240.151 2.00157 236.324 5.05713C232.457 8.14427 230.564 12.8818 230.564 19.1622C230.564 23.6062 231.775 28.5343 234.167 33.9388C227.169 39.8018 223.6 46.2126 223.6 53.1699C223.6 59.8839 225.624 65.0017 229.746 68.427C233.851 71.8376 239.953 73.5 247.964 73.5ZM240.943 52.9846C240.943 51.3856 241.474 49.8144 242.572 48.2647C245.462 52.1935 248.503 55.6366 251.695 58.5919C250.754 58.7206 249.728 58.7857 248.614 58.7857C245.941 58.7857 244.027 58.2679 242.791 57.3145C241.579 56.38 240.943 54.9681 240.943 52.9846Z" fill="white" stroke="black"/>
<mask id="path-9-outside-1" maskUnits="userSpaceOnUse" x="82.5614" y="58.1443" width="208" height="30" fill="black">
<rect fill="white" x="82.5614" y="58.1443" width="208" height="30"/>
<path d="M100.589 60.7283C100.829 60.2963 101.177 60.0083 101.633 59.8643C102.089 59.7203 102.653 59.6483 103.325 59.6483C104.021 59.6483 104.573 59.7083 104.981 59.8283C105.413 59.9483 105.725 60.0923 105.917 60.2603C106.133 60.4283 106.289 60.6803 106.385 61.0163C106.529 61.4003 106.601 62.0123 106.601 62.8523V82.8323C106.601 83.4083 106.577 83.8283 106.529 84.0923C106.505 84.3563 106.397 84.6683 106.205 85.0283C105.869 85.6763 104.933 86.0003 103.397 86.0003C102.461 86.0003 101.813 85.9283 101.453 85.7843C101.093 85.6403 100.793 85.4123 100.553 85.1003C95.1534 77.9003 91.6014 73.1963 89.8974 70.9883V82.8323C89.8974 83.4083 89.8734 83.8283 89.8254 84.0923C89.8014 84.3563 89.6934 84.6683 89.5014 85.0283C89.1654 85.6763 88.2294 86.0003 86.6934 86.0003C85.2054 86.0003 84.2934 85.6763 83.9574 85.0283C83.7654 84.6683 83.6454 84.3443 83.5974 84.0563C83.5734 83.7683 83.5614 83.3483 83.5614 82.7963V62.7083C83.5614 61.7963 83.6694 61.1363 83.8854 60.7283C84.1254 60.2963 84.4734 60.0083 84.9294 59.8643C85.3854 59.7203 85.9734 59.6483 86.6934 59.6483C87.4134 59.6483 87.9774 59.7203 88.3854 59.8643C88.8174 59.9843 89.1174 60.1283 89.2854 60.2963C89.3814 60.3683 89.6574 60.6803 90.1134 61.2323C95.1774 68.1203 98.5614 72.6683 100.265 74.8763V62.7083C100.265 61.7963 100.373 61.1363 100.589 60.7283Z"/>
<path d="M121.856 59.2883C125.408 59.2883 128.492 60.5723 131.108 63.1403C133.724 65.7083 135.032 68.9003 135.032 72.7163C135.032 76.5083 133.784 79.7483 131.288 82.4363C128.792 85.1003 125.72 86.4323 122.072 86.4323C118.424 86.4323 115.316 85.1123 112.748 82.4723C110.204 79.8323 108.932 76.6883 108.932 73.0403C108.932 71.0483 109.292 69.1883 110.012 67.4603C110.732 65.7083 111.692 64.2443 112.892 63.0683C114.092 61.8923 115.472 60.9683 117.032 60.2963C118.592 59.6243 120.2 59.2883 121.856 59.2883ZM115.304 72.8603C115.304 74.9963 115.988 76.7363 117.356 78.0803C118.748 79.4003 120.296 80.0603 122 80.0603C123.704 80.0603 125.24 79.4123 126.608 78.1163C127.976 76.8203 128.66 75.0803 128.66 72.8963C128.66 70.7123 127.964 68.9603 126.572 67.6403C125.204 66.3203 123.668 65.6603 121.964 65.6603C120.26 65.6603 118.724 66.3323 117.356 67.6763C115.988 68.9963 115.304 70.7243 115.304 72.8603Z"/>
<path d="M168.958 59.7563C170.566 60.3323 171.37 61.1003 171.37 62.0603C171.37 62.3723 171.226 62.9603 170.938 63.8243L164.026 83.8043C163.978 83.9723 163.894 84.1763 163.774 84.4163C163.654 84.6563 163.33 84.9803 162.802 85.3883C162.298 85.7723 161.686 85.9643 160.966 85.9643C160.27 85.9643 159.658 85.7723 159.13 85.3883C158.626 84.9803 158.29 84.5843 158.122 84.2003L153.91 71.7803C151.246 79.6523 149.89 83.6603 149.842 83.8043C149.794 83.9483 149.686 84.1523 149.518 84.4163C149.35 84.6803 149.158 84.9203 148.942 85.1363C148.39 85.6883 147.73 85.9643 146.962 85.9643C146.194 85.9643 145.558 85.7843 145.054 85.4243C144.574 85.0643 144.25 84.7043 144.082 84.3443L143.83 83.8043L136.882 63.8243C136.618 63.0323 136.486 62.4443 136.486 62.0603C136.486 61.1003 137.29 60.3443 138.898 59.7923C139.594 59.5523 140.218 59.4323 140.77 59.4323C141.346 59.4323 141.778 59.6243 142.066 60.0083C142.378 60.3923 142.654 60.9803 142.894 61.7723L146.854 73.7963L150.778 61.9523C151.114 60.9443 151.726 60.2483 152.614 59.8643C152.998 59.6963 153.49 59.6123 154.09 59.6123C154.714 59.6123 155.29 59.8163 155.818 60.2243C156.346 60.6083 156.682 60.9923 156.826 61.3763L160.966 73.8683L164.926 61.7723C165.118 61.2203 165.274 60.8123 165.394 60.5483C165.514 60.2843 165.73 60.0323 166.042 59.7923C166.378 59.5283 166.786 59.3963 167.266 59.3963C167.746 59.3963 168.31 59.5163 168.958 59.7563Z"/>
<path d="M179.722 80.6723H189.514C190.306 80.6723 190.882 80.7683 191.242 80.9603C191.602 81.1283 191.842 81.4043 191.962 81.7883C192.082 82.1723 192.142 82.6883 192.142 83.3363C192.142 83.9603 192.082 84.4643 191.962 84.8483C191.842 85.2323 191.638 85.4963 191.35 85.6403C190.894 85.8803 190.27 86.0003 189.478 86.0003H176.518C174.838 86.0003 173.854 85.5443 173.566 84.6323C173.422 84.2483 173.35 83.6363 173.35 82.7963V62.7803C173.35 62.2283 173.362 61.8203 173.386 61.5563C173.434 61.2683 173.554 60.9443 173.746 60.5843C174.082 59.9363 175.018 59.6123 176.554 59.6123C178.234 59.6123 179.23 60.0563 179.542 60.9443C179.662 61.3523 179.722 61.9763 179.722 62.8163V80.6723Z"/>
<path d="M200.851 79.6283H211.939C212.491 79.6283 212.899 79.6523 213.163 79.7003C213.451 79.7243 213.775 79.8323 214.135 80.0243C214.783 80.3603 215.107 81.2963 215.107 82.8323C215.107 84.5123 214.663 85.4963 213.775 85.7843C213.367 85.9283 212.743 86.0003 211.903 86.0003H197.647C195.967 86.0003 194.983 85.5443 194.695 84.6323C194.551 84.2483 194.479 83.6363 194.479 82.7963V62.7803C194.479 61.5563 194.707 60.7283 195.163 60.2963C195.619 59.8403 196.483 59.6123 197.755 59.6123H211.939C212.491 59.6123 212.899 59.6363 213.163 59.6843C213.451 59.7083 213.775 59.8163 214.135 60.0083C214.783 60.3443 215.107 61.2803 215.107 62.8163C215.107 64.4963 214.663 65.4803 213.775 65.7683C213.367 65.9123 212.743 65.9843 211.903 65.9843H200.851V69.6203H207.979C208.531 69.6203 208.939 69.6443 209.203 69.6923C209.491 69.7163 209.815 69.8243 210.175 70.0163C210.823 70.3523 211.147 71.2883 211.147 72.8243C211.147 74.5043 210.691 75.4883 209.779 75.7763C209.371 75.9203 208.747 75.9923 207.907 75.9923H200.851V79.6283Z"/>
<path d="M220.64 59.5763L227.3 59.6123C230.78 59.6123 233.84 60.8723 236.48 63.3923C239.12 65.8883 240.44 68.9723 240.44 72.6443C240.44 76.2923 239.144 79.4243 236.552 82.0403C233.984 84.6563 230.864 85.9643 227.192 85.9643H220.604C219.14 85.9643 218.228 85.6643 217.868 85.0643C217.58 84.5603 217.436 83.7923 217.436 82.7603V62.7443C217.436 62.1683 217.448 61.7483 217.472 61.4843C217.52 61.2203 217.64 60.9083 217.832 60.5483C218.168 59.9003 219.104 59.5763 220.64 59.5763ZM227.3 79.5923C229.028 79.5923 230.588 78.9563 231.98 77.6843C233.372 76.3883 234.068 74.7683 234.068 72.8243C234.068 70.8803 233.384 69.2603 232.016 67.9643C230.672 66.6443 229.088 65.9843 227.264 65.9843H223.808V79.5923H227.3Z"/>
<path d="M256.536 70.0883H262.872C264.168 70.1363 264.96 70.4723 265.248 71.0963C265.488 71.5523 265.608 72.2243 265.608 73.1123V81.0323C265.608 81.8003 265.272 82.5323 264.6 83.2283C262.584 85.3163 259.56 86.3603 255.528 86.3603C251.952 86.3603 248.844 85.0163 246.204 82.3283C243.564 79.6163 242.244 76.3523 242.244 72.5363C242.244 68.7203 243.588 65.5403 246.276 62.9963C248.964 60.4283 252.132 59.1443 255.78 59.1443C258.612 59.1443 261.288 60.0803 263.808 61.9523C264.456 62.4323 264.78 62.9723 264.78 63.5723C264.78 64.1483 264.504 64.8203 263.952 65.5883C263.016 66.8603 262.164 67.4963 261.396 67.4963C260.94 67.4963 260.208 67.1723 259.2 66.5243C258.192 65.8523 256.992 65.5163 255.6 65.5163C253.776 65.5163 252.156 66.1643 250.74 67.4603C249.324 68.7323 248.616 70.4123 248.616 72.5003C248.616 74.5643 249.336 76.3283 250.776 77.7923C252.216 79.2323 253.848 79.9523 255.672 79.9523C256.992 79.9523 258.18 79.7363 259.236 79.3043V75.3803H256.392C255.648 75.3803 255.12 75.2843 254.808 75.0923C254.496 74.9003 254.292 74.6243 254.196 74.2643C254.1 73.8803 254.052 73.3763 254.052 72.7523C254.052 72.1043 254.1 71.5883 254.196 71.2043C254.316 70.8203 254.52 70.5563 254.808 70.4123C255.24 70.1963 255.816 70.0883 256.536 70.0883Z"/>
<path d="M274.855 79.6283H285.943C286.495 79.6283 286.903 79.6523 287.167 79.7003C287.455 79.7243 287.779 79.8323 288.139 80.0243C288.787 80.3603 289.111 81.2963 289.111 82.8323C289.111 84.5123 288.667 85.4963 287.779 85.7843C287.371 85.9283 286.747 86.0003 285.907 86.0003H271.651C269.971 86.0003 268.987 85.5443 268.699 84.6323C268.555 84.2483 268.483 83.6363 268.483 82.7963V62.7803C268.483 61.5563 268.711 60.7283 269.167 60.2963C269.623 59.8403 270.487 59.6123 271.759 59.6123H285.943C286.495 59.6123 286.903 59.6363 287.167 59.6843C287.455 59.7083 287.779 59.8163 288.139 60.0083C288.787 60.3443 289.111 61.2803 289.111 62.8163C289.111 64.4963 288.667 65.4803 287.779 65.7683C287.371 65.9123 286.747 65.9843 285.907 65.9843H274.855V69.6203H281.983C282.535 69.6203 282.943 69.6443 283.207 69.6923C283.495 69.7163 283.819 69.8243 284.179 70.0163C284.827 70.3523 285.151 71.2883 285.151 72.8243C285.151 74.5043 284.695 75.4883 283.783 75.7763C283.375 75.9203 282.751 75.9923 281.911 75.9923H274.855V79.6283Z"/>
</mask>
<path d="M100.589 60.7283C100.829 60.2963 101.177 60.0083 101.633 59.8643C102.089 59.7203 102.653 59.6483 103.325 59.6483C104.021 59.6483 104.573 59.7083 104.981 59.8283C105.413 59.9483 105.725 60.0923 105.917 60.2603C106.133 60.4283 106.289 60.6803 106.385 61.0163C106.529 61.4003 106.601 62.0123 106.601 62.8523V82.8323C106.601 83.4083 106.577 83.8283 106.529 84.0923C106.505 84.3563 106.397 84.6683 106.205 85.0283C105.869 85.6763 104.933 86.0003 103.397 86.0003C102.461 86.0003 101.813 85.9283 101.453 85.7843C101.093 85.6403 100.793 85.4123 100.553 85.1003C95.1534 77.9003 91.6014 73.1963 89.8974 70.9883V82.8323C89.8974 83.4083 89.8734 83.8283 89.8254 84.0923C89.8014 84.3563 89.6934 84.6683 89.5014 85.0283C89.1654 85.6763 88.2294 86.0003 86.6934 86.0003C85.2054 86.0003 84.2934 85.6763 83.9574 85.0283C83.7654 84.6683 83.6454 84.3443 83.5974 84.0563C83.5734 83.7683 83.5614 83.3483 83.5614 82.7963V62.7083C83.5614 61.7963 83.6694 61.1363 83.8854 60.7283C84.1254 60.2963 84.4734 60.0083 84.9294 59.8643C85.3854 59.7203 85.9734 59.6483 86.6934 59.6483C87.4134 59.6483 87.9774 59.7203 88.3854 59.8643C88.8174 59.9843 89.1174 60.1283 89.2854 60.2963C89.3814 60.3683 89.6574 60.6803 90.1134 61.2323C95.1774 68.1203 98.5614 72.6683 100.265 74.8763V62.7083C100.265 61.7963 100.373 61.1363 100.589 60.7283Z" fill="white"/>
<path d="M121.856 59.2883C125.408 59.2883 128.492 60.5723 131.108 63.1403C133.724 65.7083 135.032 68.9003 135.032 72.7163C135.032 76.5083 133.784 79.7483 131.288 82.4363C128.792 85.1003 125.72 86.4323 122.072 86.4323C118.424 86.4323 115.316 85.1123 112.748 82.4723C110.204 79.8323 108.932 76.6883 108.932 73.0403C108.932 71.0483 109.292 69.1883 110.012 67.4603C110.732 65.7083 111.692 64.2443 112.892 63.0683C114.092 61.8923 115.472 60.9683 117.032 60.2963C118.592 59.6243 120.2 59.2883 121.856 59.2883ZM115.304 72.8603C115.304 74.9963 115.988 76.7363 117.356 78.0803C118.748 79.4003 120.296 80.0603 122 80.0603C123.704 80.0603 125.24 79.4123 126.608 78.1163C127.976 76.8203 128.66 75.0803 128.66 72.8963C128.66 70.7123 127.964 68.9603 126.572 67.6403C125.204 66.3203 123.668 65.6603 121.964 65.6603C120.26 65.6603 118.724 66.3323 117.356 67.6763C115.988 68.9963 115.304 70.7243 115.304 72.8603Z" fill="white"/>
<path d="M168.958 59.7563C170.566 60.3323 171.37 61.1003 171.37 62.0603C171.37 62.3723 171.226 62.9603 170.938 63.8243L164.026 83.8043C163.978 83.9723 163.894 84.1763 163.774 84.4163C163.654 84.6563 163.33 84.9803 162.802 85.3883C162.298 85.7723 161.686 85.9643 160.966 85.9643C160.27 85.9643 159.658 85.7723 159.13 85.3883C158.626 84.9803 158.29 84.5843 158.122 84.2003L153.91 71.7803C151.246 79.6523 149.89 83.6603 149.842 83.8043C149.794 83.9483 149.686 84.1523 149.518 84.4163C149.35 84.6803 149.158 84.9203 148.942 85.1363C148.39 85.6883 147.73 85.9643 146.962 85.9643C146.194 85.9643 145.558 85.7843 145.054 85.4243C144.574 85.0643 144.25 84.7043 144.082 84.3443L143.83 83.8043L136.882 63.8243C136.618 63.0323 136.486 62.4443 136.486 62.0603C136.486 61.1003 137.29 60.3443 138.898 59.7923C139.594 59.5523 140.218 59.4323 140.77 59.4323C141.346 59.4323 141.778 59.6243 142.066 60.0083C142.378 60.3923 142.654 60.9803 142.894 61.7723L146.854 73.7963L150.778 61.9523C151.114 60.9443 151.726 60.2483 152.614 59.8643C152.998 59.6963 153.49 59.6123 154.09 59.6123C154.714 59.6123 155.29 59.8163 155.818 60.2243C156.346 60.6083 156.682 60.9923 156.826 61.3763L160.966 73.8683L164.926 61.7723C165.118 61.2203 165.274 60.8123 165.394 60.5483C165.514 60.2843 165.73 60.0323 166.042 59.7923C166.378 59.5283 166.786 59.3963 167.266 59.3963C167.746 59.3963 168.31 59.5163 168.958 59.7563Z" fill="white"/>
<path d="M179.722 80.6723H189.514C190.306 80.6723 190.882 80.7683 191.242 80.9603C191.602 81.1283 191.842 81.4043 191.962 81.7883C192.082 82.1723 192.142 82.6883 192.142 83.3363C192.142 83.9603 192.082 84.4643 191.962 84.8483C191.842 85.2323 191.638 85.4963 191.35 85.6403C190.894 85.8803 190.27 86.0003 189.478 86.0003H176.518C174.838 86.0003 173.854 85.5443 173.566 84.6323C173.422 84.2483 173.35 83.6363 173.35 82.7963V62.7803C173.35 62.2283 173.362 61.8203 173.386 61.5563C173.434 61.2683 173.554 60.9443 173.746 60.5843C174.082 59.9363 175.018 59.6123 176.554 59.6123C178.234 59.6123 179.23 60.0563 179.542 60.9443C179.662 61.3523 179.722 61.9763 179.722 62.8163V80.6723Z" fill="white"/>
<path d="M200.851 79.6283H211.939C212.491 79.6283 212.899 79.6523 213.163 79.7003C213.451 79.7243 213.775 79.8323 214.135 80.0243C214.783 80.3603 215.107 81.2963 215.107 82.8323C215.107 84.5123 214.663 85.4963 213.775 85.7843C213.367 85.9283 212.743 86.0003 211.903 86.0003H197.647C195.967 86.0003 194.983 85.5443 194.695 84.6323C194.551 84.2483 194.479 83.6363 194.479 82.7963V62.7803C194.479 61.5563 194.707 60.7283 195.163 60.2963C195.619 59.8403 196.483 59.6123 197.755 59.6123H211.939C212.491 59.6123 212.899 59.6363 213.163 59.6843C213.451 59.7083 213.775 59.8163 214.135 60.0083C214.783 60.3443 215.107 61.2803 215.107 62.8163C215.107 64.4963 214.663 65.4803 213.775 65.7683C213.367 65.9123 212.743 65.9843 211.903 65.9843H200.851V69.6203H207.979C208.531 69.6203 208.939 69.6443 209.203 69.6923C209.491 69.7163 209.815 69.8243 210.175 70.0163C210.823 70.3523 211.147 71.2883 211.147 72.8243C211.147 74.5043 210.691 75.4883 209.779 75.7763C209.371 75.9203 208.747 75.9923 207.907 75.9923H200.851V79.6283Z" fill="white"/>
<path d="M220.64 59.5763L227.3 59.6123C230.78 59.6123 233.84 60.8723 236.48 63.3923C239.12 65.8883 240.44 68.9723 240.44 72.6443C240.44 76.2923 239.144 79.4243 236.552 82.0403C233.984 84.6563 230.864 85.9643 227.192 85.9643H220.604C219.14 85.9643 218.228 85.6643 217.868 85.0643C217.58 84.5603 217.436 83.7923 217.436 82.7603V62.7443C217.436 62.1683 217.448 61.7483 217.472 61.4843C217.52 61.2203 217.64 60.9083 217.832 60.5483C218.168 59.9003 219.104 59.5763 220.64 59.5763ZM227.3 79.5923C229.028 79.5923 230.588 78.9563 231.98 77.6843C233.372 76.3883 234.068 74.7683 234.068 72.8243C234.068 70.8803 233.384 69.2603 232.016 67.9643C230.672 66.6443 229.088 65.9843 227.264 65.9843H223.808V79.5923H227.3Z" fill="white"/>
<path d="M256.536 70.0883H262.872C264.168 70.1363 264.96 70.4723 265.248 71.0963C265.488 71.5523 265.608 72.2243 265.608 73.1123V81.0323C265.608 81.8003 265.272 82.5323 264.6 83.2283C262.584 85.3163 259.56 86.3603 255.528 86.3603C251.952 86.3603 248.844 85.0163 246.204 82.3283C243.564 79.6163 242.244 76.3523 242.244 72.5363C242.244 68.7203 243.588 65.5403 246.276 62.9963C248.964 60.4283 252.132 59.1443 255.78 59.1443C258.612 59.1443 261.288 60.0803 263.808 61.9523C264.456 62.4323 264.78 62.9723 264.78 63.5723C264.78 64.1483 264.504 64.8203 263.952 65.5883C263.016 66.8603 262.164 67.4963 261.396 67.4963C260.94 67.4963 260.208 67.1723 259.2 66.5243C258.192 65.8523 256.992 65.5163 255.6 65.5163C253.776 65.5163 252.156 66.1643 250.74 67.4603C249.324 68.7323 248.616 70.4123 248.616 72.5003C248.616 74.5643 249.336 76.3283 250.776 77.7923C252.216 79.2323 253.848 79.9523 255.672 79.9523C256.992 79.9523 258.18 79.7363 259.236 79.3043V75.3803H256.392C255.648 75.3803 255.12 75.2843 254.808 75.0923C254.496 74.9003 254.292 74.6243 254.196 74.2643C254.1 73.8803 254.052 73.3763 254.052 72.7523C254.052 72.1043 254.1 71.5883 254.196 71.2043C254.316 70.8203 254.52 70.5563 254.808 70.4123C255.24 70.1963 255.816 70.0883 256.536 70.0883Z" fill="white"/>
<path d="M274.855 79.6283H285.943C286.495 79.6283 286.903 79.6523 287.167 79.7003C287.455 79.7243 287.779 79.8323 288.139 80.0243C288.787 80.3603 289.111 81.2963 289.111 82.8323C289.111 84.5123 288.667 85.4963 287.779 85.7843C287.371 85.9283 286.747 86.0003 285.907 86.0003H271.651C269.971 86.0003 268.987 85.5443 268.699 84.6323C268.555 84.2483 268.483 83.6363 268.483 82.7963V62.7803C268.483 61.5563 268.711 60.7283 269.167 60.2963C269.623 59.8403 270.487 59.6123 271.759 59.6123H285.943C286.495 59.6123 286.903 59.6363 287.167 59.6843C287.455 59.7083 287.779 59.8163 288.139 60.0083C288.787 60.3443 289.111 61.2803 289.111 62.8163C289.111 64.4963 288.667 65.4803 287.779 65.7683C287.371 65.9123 286.747 65.9843 285.907 65.9843H274.855V69.6203H281.983C282.535 69.6203 282.943 69.6443 283.207 69.6923C283.495 69.7163 283.819 69.8243 284.179 70.0163C284.827 70.3523 285.151 71.2883 285.151 72.8243C285.151 74.5043 284.695 75.4883 283.783 75.7763C283.375 75.9203 282.751 75.9923 281.911 75.9923H274.855V79.6283Z" fill="white"/>
<path d="M100.589 60.7283C100.829 60.2963 101.177 60.0083 101.633 59.8643C102.089 59.7203 102.653 59.6483 103.325 59.6483C104.021 59.6483 104.573 59.7083 104.981 59.8283C105.413 59.9483 105.725 60.0923 105.917 60.2603C106.133 60.4283 106.289 60.6803 106.385 61.0163C106.529 61.4003 106.601 62.0123 106.601 62.8523V82.8323C106.601 83.4083 106.577 83.8283 106.529 84.0923C106.505 84.3563 106.397 84.6683 106.205 85.0283C105.869 85.6763 104.933 86.0003 103.397 86.0003C102.461 86.0003 101.813 85.9283 101.453 85.7843C101.093 85.6403 100.793 85.4123 100.553 85.1003C95.1534 77.9003 91.6014 73.1963 89.8974 70.9883V82.8323C89.8974 83.4083 89.8734 83.8283 89.8254 84.0923C89.8014 84.3563 89.6934 84.6683 89.5014 85.0283C89.1654 85.6763 88.2294 86.0003 86.6934 86.0003C85.2054 86.0003 84.2934 85.6763 83.9574 85.0283C83.7654 84.6683 83.6454 84.3443 83.5974 84.0563C83.5734 83.7683 83.5614 83.3483 83.5614 82.7963V62.7083C83.5614 61.7963 83.6694 61.1363 83.8854 60.7283C84.1254 60.2963 84.4734 60.0083 84.9294 59.8643C85.3854 59.7203 85.9734 59.6483 86.6934 59.6483C87.4134 59.6483 87.9774 59.7203 88.3854 59.8643C88.8174 59.9843 89.1174 60.1283 89.2854 60.2963C89.3814 60.3683 89.6574 60.6803 90.1134 61.2323C95.1774 68.1203 98.5614 72.6683 100.265 74.8763V62.7083C100.265 61.7963 100.373 61.1363 100.589 60.7283Z" stroke="black" stroke-width="2" mask="url(#path-9-outside-1)"/>
<path d="M121.856 59.2883C125.408 59.2883 128.492 60.5723 131.108 63.1403C133.724 65.7083 135.032 68.9003 135.032 72.7163C135.032 76.5083 133.784 79.7483 131.288 82.4363C128.792 85.1003 125.72 86.4323 122.072 86.4323C118.424 86.4323 115.316 85.1123 112.748 82.4723C110.204 79.8323 108.932 76.6883 108.932 73.0403C108.932 71.0483 109.292 69.1883 110.012 67.4603C110.732 65.7083 111.692 64.2443 112.892 63.0683C114.092 61.8923 115.472 60.9683 117.032 60.2963C118.592 59.6243 120.2 59.2883 121.856 59.2883ZM115.304 72.8603C115.304 74.9963 115.988 76.7363 117.356 78.0803C118.748 79.4003 120.296 80.0603 122 80.0603C123.704 80.0603 125.24 79.4123 126.608 78.1163C127.976 76.8203 128.66 75.0803 128.66 72.8963C128.66 70.7123 127.964 68.9603 126.572 67.6403C125.204 66.3203 123.668 65.6603 121.964 65.6603C120.26 65.6603 118.724 66.3323 117.356 67.6763C115.988 68.9963 115.304 70.7243 115.304 72.8603Z" stroke="black" stroke-width="2" mask="url(#path-9-outside-1)"/>
<path d="M168.958 59.7563C170.566 60.3323 171.37 61.1003 171.37 62.0603C171.37 62.3723 171.226 62.9603 170.938 63.8243L164.026 83.8043C163.978 83.9723 163.894 84.1763 163.774 84.4163C163.654 84.6563 163.33 84.9803 162.802 85.3883C162.298 85.7723 161.686 85.9643 160.966 85.9643C160.27 85.9643 159.658 85.7723 159.13 85.3883C158.626 84.9803 158.29 84.5843 158.122 84.2003L153.91 71.7803C151.246 79.6523 149.89 83.6603 149.842 83.8043C149.794 83.9483 149.686 84.1523 149.518 84.4163C149.35 84.6803 149.158 84.9203 148.942 85.1363C148.39 85.6883 147.73 85.9643 146.962 85.9643C146.194 85.9643 145.558 85.7843 145.054 85.4243C144.574 85.0643 144.25 84.7043 144.082 84.3443L143.83 83.8043L136.882 63.8243C136.618 63.0323 136.486 62.4443 136.486 62.0603C136.486 61.1003 137.29 60.3443 138.898 59.7923C139.594 59.5523 140.218 59.4323 140.77 59.4323C141.346 59.4323 141.778 59.6243 142.066 60.0083C142.378 60.3923 142.654 60.9803 142.894 61.7723L146.854 73.7963L150.778 61.9523C151.114 60.9443 151.726 60.2483 152.614 59.8643C152.998 59.6963 153.49 59.6123 154.09 59.6123C154.714 59.6123 155.29 59.8163 155.818 60.2243C156.346 60.6083 156.682 60.9923 156.826 61.3763L160.966 73.8683L164.926 61.7723C165.118 61.2203 165.274 60.8123 165.394 60.5483C165.514 60.2843 165.73 60.0323 166.042 59.7923C166.378 59.5283 166.786 59.3963 167.266 59.3963C167.746 59.3963 168.31 59.5163 168.958 59.7563Z" stroke="black" stroke-width="2" mask="url(#path-9-outside-1)"/>
<path d="M179.722 80.6723H189.514C190.306 80.6723 190.882 80.7683 191.242 80.9603C191.602 81.1283 191.842 81.4043 191.962 81.7883C192.082 82.1723 192.142 82.6883 192.142 83.3363C192.142 83.9603 192.082 84.4643 191.962 84.8483C191.842 85.2323 191.638 85.4963 191.35 85.6403C190.894 85.8803 190.27 86.0003 189.478 86.0003H176.518C174.838 86.0003 173.854 85.5443 173.566 84.6323C173.422 84.2483 173.35 83.6363 173.35 82.7963V62.7803C173.35 62.2283 173.362 61.8203 173.386 61.5563C173.434 61.2683 173.554 60.9443 173.746 60.5843C174.082 59.9363 175.018 59.6123 176.554 59.6123C178.234 59.6123 179.23 60.0563 179.542 60.9443C179.662 61.3523 179.722 61.9763 179.722 62.8163V80.6723Z" stroke="black" stroke-width="2" mask="url(#path-9-outside-1)"/>
<path d="M200.851 79.6283H211.939C212.491 79.6283 212.899 79.6523 213.163 79.7003C213.451 79.7243 213.775 79.8323 214.135 80.0243C214.783 80.3603 215.107 81.2963 215.107 82.8323C215.107 84.5123 214.663 85.4963 213.775 85.7843C213.367 85.9283 212.743 86.0003 211.903 86.0003H197.647C195.967 86.0003 194.983 85.5443 194.695 84.6323C194.551 84.2483 194.479 83.6363 194.479 82.7963V62.7803C194.479 61.5563 194.707 60.7283 195.163 60.2963C195.619 59.8403 196.483 59.6123 197.755 59.6123H211.939C212.491 59.6123 212.899 59.6363 213.163 59.6843C213.451 59.7083 213.775 59.8163 214.135 60.0083C214.783 60.3443 215.107 61.2803 215.107 62.8163C215.107 64.4963 214.663 65.4803 213.775 65.7683C213.367 65.9123 212.743 65.9843 211.903 65.9843H200.851V69.6203H207.979C208.531 69.6203 208.939 69.6443 209.203 69.6923C209.491 69.7163 209.815 69.8243 210.175 70.0163C210.823 70.3523 211.147 71.2883 211.147 72.8243C211.147 74.5043 210.691 75.4883 209.779 75.7763C209.371 75.9203 208.747 75.9923 207.907 75.9923H200.851V79.6283Z" stroke="black" stroke-width="2" mask="url(#path-9-outside-1)"/>
<path d="M220.64 59.5763L227.3 59.6123C230.78 59.6123 233.84 60.8723 236.48 63.3923C239.12 65.8883 240.44 68.9723 240.44 72.6443C240.44 76.2923 239.144 79.4243 236.552 82.0403C233.984 84.6563 230.864 85.9643 227.192 85.9643H220.604C219.14 85.9643 218.228 85.6643 217.868 85.0643C217.58 84.5603 217.436 83.7923 217.436 82.7603V62.7443C217.436 62.1683 217.448 61.7483 217.472 61.4843C217.52 61.2203 217.64 60.9083 217.832 60.5483C218.168 59.9003 219.104 59.5763 220.64 59.5763ZM227.3 79.5923C229.028 79.5923 230.588 78.9563 231.98 77.6843C233.372 76.3883 234.068 74.7683 234.068 72.8243C234.068 70.8803 233.384 69.2603 232.016 67.9643C230.672 66.6443 229.088 65.9843 227.264 65.9843H223.808V79.5923H227.3Z" stroke="black" stroke-width="2" mask="url(#path-9-outside-1)"/>
<path d="M256.536 70.0883H262.872C264.168 70.1363 264.96 70.4723 265.248 71.0963C265.488 71.5523 265.608 72.2243 265.608 73.1123V81.0323C265.608 81.8003 265.272 82.5323 264.6 83.2283C262.584 85.3163 259.56 86.3603 255.528 86.3603C251.952 86.3603 248.844 85.0163 246.204 82.3283C243.564 79.6163 242.244 76.3523 242.244 72.5363C242.244 68.7203 243.588 65.5403 246.276 62.9963C248.964 60.4283 252.132 59.1443 255.78 59.1443C258.612 59.1443 261.288 60.0803 263.808 61.9523C264.456 62.4323 264.78 62.9723 264.78 63.5723C264.78 64.1483 264.504 64.8203 263.952 65.5883C263.016 66.8603 262.164 67.4963 261.396 67.4963C260.94 67.4963 260.208 67.1723 259.2 66.5243C258.192 65.8523 256.992 65.5163 255.6 65.5163C253.776 65.5163 252.156 66.1643 250.74 67.4603C249.324 68.7323 248.616 70.4123 248.616 72.5003C248.616 74.5643 249.336 76.3283 250.776 77.7923C252.216 79.2323 253.848 79.9523 255.672 79.9523C256.992 79.9523 258.18 79.7363 259.236 79.3043V75.3803H256.392C255.648 75.3803 255.12 75.2843 254.808 75.0923C254.496 74.9003 254.292 74.6243 254.196 74.2643C254.1 73.8803 254.052 73.3763 254.052 72.7523C254.052 72.1043 254.1 71.5883 254.196 71.2043C254.316 70.8203 254.52 70.5563 254.808 70.4123C255.24 70.1963 255.816 70.0883 256.536 70.0883Z" stroke="black" stroke-width="2" mask="url(#path-9-outside-1)"/>
<path d="M274.855 79.6283H285.943C286.495 79.6283 286.903 79.6523 287.167 79.7003C287.455 79.7243 287.779 79.8323 288.139 80.0243C288.787 80.3603 289.111 81.2963 289.111 82.8323C289.111 84.5123 288.667 85.4963 287.779 85.7843C287.371 85.9283 286.747 86.0003 285.907 86.0003H271.651C269.971 86.0003 268.987 85.5443 268.699 84.6323C268.555 84.2483 268.483 83.6363 268.483 82.7963V62.7803C268.483 61.5563 268.711 60.7283 269.167 60.2963C269.623 59.8403 270.487 59.6123 271.759 59.6123H285.943C286.495 59.6123 286.903 59.6363 287.167 59.6843C287.455 59.7083 287.779 59.8163 288.139 60.0083C288.787 60.3443 289.111 61.2803 289.111 62.8163C289.111 64.4963 288.667 65.4803 287.779 65.7683C287.371 65.9123 286.747 65.9843 285.907 65.9843H274.855V69.6203H281.983C282.535 69.6203 282.943 69.6443 283.207 69.6923C283.495 69.7163 283.819 69.8243 284.179 70.0163C284.827 70.3523 285.151 71.2883 285.151 72.8243C285.151 74.5043 284.695 75.4883 283.783 75.7763C283.375 75.9203 282.751 75.9923 281.911 75.9923H274.855V79.6283Z" stroke="black" stroke-width="2" mask="url(#path-9-outside-1)"/>
<path d="M70.0369 49.7344C67.3415 52.8125 63.8632 56.7014 59.6013 61.4015V53.0833C59.6013 51.8978 59.5163 50.9652 59.3231 50.3222L59.3193 50.3096L59.3148 50.2972C58.7507 48.7255 57.0003 48.1039 54.5765 48.1039C53.4518 48.1039 52.5085 48.2191 51.768 48.47C51.0259 48.7215 50.445 49.125 50.1255 49.726C49.8354 50.2589 49.6394 50.7644 49.5588 51.2378L49.5556 51.2566L49.5538 51.2755C49.5173 51.6689 49.5003 52.2586 49.5003 53.033V81.0171C49.5003 82.1945 49.6003 83.1232 49.8371 83.7503C50.3641 85.3588 52.105 85.9966 54.5251 85.9966C55.6498 85.9966 56.5931 85.8813 57.3336 85.6304C58.0757 85.3789 58.6567 84.9754 58.9762 84.3743C59.2614 83.8504 59.4471 83.3547 59.4941 82.8984C59.5688 82.4813 59.6013 81.8628 59.6013 81.0674V72.5608L70.0372 84.2154C70.0379 84.2161 70.0385 84.2168 70.0391 84.2175C70.6715 84.9395 71.2729 85.5014 71.8436 85.886C72.4121 86.2692 72.9852 86.4999 73.5499 86.4999C74.6288 86.4999 75.8785 85.8252 77.2633 84.673L77.2634 84.673L77.2688 84.6684C77.9734 84.0648 78.5229 83.4871 78.8993 82.9343C79.2743 82.3837 79.5003 81.8245 79.5003 81.2687C79.5003 80.1993 78.8214 79.0221 77.6756 77.7639C75.5202 75.3248 71.9174 71.727 66.8775 66.977L68.5429 65.4283L68.5446 65.4267C72.7297 61.4979 75.8284 58.3983 77.8323 56.1324L77.8339 56.1306C78.8814 54.9343 79.5003 53.8094 79.5003 52.7813C79.5003 52.2122 79.277 51.6451 78.8993 51.0906C78.5218 50.5362 77.9711 49.9663 77.2661 49.3794C75.8838 48.196 74.6332 47.4999 73.5499 47.4999C72.9746 47.4999 72.3952 47.7213 71.8225 48.0981C71.249 48.4754 70.6542 49.0267 70.0369 49.7344Z" fill="white" stroke="black"/>
<mask id="path-11-outside-2" maskUnits="userSpaceOnUse" x="81.7956" y="12.1448" width="133" height="30" fill="black">
<rect fill="white" x="81.7956" y="12.1448" width="133" height="30"/>
<path d="M99.8236 14.7288C100.064 14.2968 100.412 14.0088 100.868 13.8648C101.324 13.7208 101.888 13.6488 102.56 13.6488C103.256 13.6488 103.808 13.7088 104.216 13.8288C104.648 13.9488 104.96 14.0928 105.152 14.2608C105.368 14.4288 105.524 14.6808 105.62 15.0168C105.764 15.4008 105.836 16.0128 105.836 16.8528V36.8328C105.836 37.4088 105.812 37.8288 105.764 38.0928C105.74 38.3568 105.632 38.6688 105.44 39.0288C105.104 39.6768 104.168 40.0008 102.632 40.0008C101.696 40.0008 101.048 39.9288 100.688 39.7848C100.328 39.6408 100.028 39.4128 99.7876 39.1008C94.3876 31.9008 90.8356 27.1968 89.1316 24.9888V36.8328C89.1316 37.4088 89.1076 37.8288 89.0596 38.0928C89.0356 38.3568 88.9276 38.6688 88.7356 39.0288C88.3996 39.6768 87.4636 40.0008 85.9276 40.0008C84.4396 40.0008 83.5276 39.6768 83.1916 39.0288C82.9996 38.6688 82.8796 38.3448 82.8316 38.0568C82.8076 37.7688 82.7956 37.3488 82.7956 36.7968V16.7088C82.7956 15.7968 82.9036 15.1368 83.1196 14.7288C83.3596 14.2968 83.7076 14.0088 84.1636 13.8648C84.6196 13.7208 85.2076 13.6488 85.9276 13.6488C86.6476 13.6488 87.2116 13.7208 87.6196 13.8648C88.0516 13.9848 88.3516 14.1288 88.5196 14.2968C88.6156 14.3688 88.8916 14.6808 89.3476 15.2328C94.4116 22.1208 97.7956 26.6688 99.4996 28.8768V16.7088C99.4996 15.7968 99.6076 15.1368 99.8236 14.7288Z"/>
<path d="M108.706 16.7808C108.706 16.2288 108.718 15.8208 108.742 15.5568C108.79 15.2688 108.91 14.9448 109.102 14.5848C109.438 13.9368 110.374 13.6128 111.91 13.6128C113.59 13.6128 114.586 14.0568 114.898 14.9448C115.018 15.3528 115.078 15.9768 115.078 16.8168V36.8328C115.078 37.4088 115.054 37.8288 115.006 38.0928C114.982 38.3568 114.874 38.6688 114.682 39.0288C114.346 39.6768 113.41 40.0008 111.874 40.0008C110.194 40.0008 109.21 39.5448 108.922 38.6328C108.778 38.2488 108.706 37.6368 108.706 36.7968V16.7808Z"/>
<path d="M131.704 24.0888H138.04C139.336 24.1368 140.128 24.4728 140.416 25.0968C140.656 25.5528 140.776 26.2248 140.776 27.1128V35.0328C140.776 35.8008 140.44 36.5328 139.768 37.2288C137.752 39.3168 134.728 40.3608 130.696 40.3608C127.12 40.3608 124.012 39.0168 121.372 36.3288C118.732 33.6168 117.412 30.3528 117.412 26.5368C117.412 22.7208 118.756 19.5408 121.444 16.9968C124.132 14.4288 127.3 13.1448 130.948 13.1448C133.78 13.1448 136.456 14.0808 138.976 15.9528C139.624 16.4328 139.948 16.9728 139.948 17.5728C139.948 18.1488 139.672 18.8208 139.12 19.5888C138.184 20.8608 137.332 21.4968 136.564 21.4968C136.108 21.4968 135.376 21.1728 134.368 20.5248C133.36 19.8528 132.16 19.5168 130.768 19.5168C128.944 19.5168 127.324 20.1648 125.908 21.4608C124.492 22.7328 123.784 24.4128 123.784 26.5008C123.784 28.5648 124.504 30.3288 125.944 31.7928C127.384 33.2328 129.016 33.9528 130.84 33.9528C132.16 33.9528 133.348 33.7368 134.404 33.3048V29.3808H131.56C130.816 29.3808 130.288 29.2848 129.976 29.0928C129.664 28.9008 129.46 28.6248 129.364 28.2648C129.268 27.8808 129.22 27.3768 129.22 26.7528C129.22 26.1048 129.268 25.5888 129.364 25.2048C129.484 24.8208 129.688 24.5568 129.976 24.4128C130.408 24.1968 130.984 24.0888 131.704 24.0888Z"/>
<path d="M159.959 14.5848C160.151 14.2248 160.475 13.9728 160.931 13.8288C161.387 13.6848 161.963 13.6128 162.659 13.6128C163.355 13.6128 163.907 13.6728 164.315 13.7928C164.723 13.9128 165.035 14.0568 165.251 14.2248C165.467 14.3928 165.635 14.6328 165.755 14.9448C165.875 15.3528 165.935 15.9768 165.935 16.8168V36.7968C165.935 37.3488 165.911 37.7688 165.863 38.0568C165.839 38.3208 165.731 38.6328 165.539 38.9928C165.203 39.6408 164.267 39.9648 162.731 39.9648C161.051 39.9648 160.067 39.5208 159.779 38.6328C159.635 38.2248 159.563 37.6008 159.563 36.7608V29.4528H150.023V36.7968C150.023 37.3488 149.999 37.7688 149.951 38.0568C149.927 38.3208 149.819 38.6328 149.627 38.9928C149.291 39.6408 148.355 39.9648 146.819 39.9648C145.139 39.9648 144.155 39.5208 143.867 38.6328C143.723 38.2248 143.651 37.6008 143.651 36.7608V16.7808C143.651 16.2288 143.663 15.8208 143.687 15.5568C143.735 15.2688 143.855 14.9448 144.047 14.5848C144.383 13.9368 145.319 13.6128 146.855 13.6128C148.535 13.6128 149.531 14.0568 149.843 14.9448C149.963 15.3528 150.023 15.9768 150.023 16.8168V24.1608H159.563V16.7808C159.563 16.2288 159.575 15.8208 159.599 15.5568C159.647 15.2688 159.767 14.9448 159.959 14.5848Z"/>
<path d="M170.551 13.5768H190.567C191.335 13.5768 191.899 13.6728 192.259 13.8648C192.619 14.0328 192.859 14.3088 192.979 14.6928C193.099 15.0768 193.159 15.5808 193.159 16.2048C193.159 16.8288 193.099 17.3328 192.979 17.7168C192.859 18.0768 192.655 18.3288 192.367 18.4728C191.935 18.6888 191.323 18.7968 190.531 18.7968H183.655V36.9048C183.655 37.4568 183.631 37.8648 183.583 38.1288C183.559 38.3928 183.451 38.7048 183.259 39.0648C183.091 39.4008 182.779 39.6408 182.323 39.7848C181.867 39.9288 181.267 40.0008 180.523 40.0008C179.779 40.0008 179.179 39.9288 178.723 39.7848C178.291 39.6408 177.979 39.4008 177.787 39.0648C177.619 38.7048 177.511 38.3928 177.463 38.1288C177.439 37.8408 177.427 37.4208 177.427 36.8688V18.7968H170.515C169.747 18.7968 169.183 18.7128 168.823 18.5448C168.463 18.3528 168.223 18.0648 168.103 17.6808C167.983 17.2968 167.923 16.7928 167.923 16.1688C167.923 15.5448 167.983 15.0528 168.103 14.6928C168.223 14.3088 168.427 14.0448 168.715 13.9008C169.147 13.6848 169.759 13.5768 170.551 13.5768Z"/>
<path d="M194.848 36.2928C194.224 35.5248 193.912 34.8408 193.912 34.2408C193.912 33.6168 194.428 32.8008 195.46 31.7928C196.06 31.2168 196.696 30.9288 197.368 30.9288C198.04 30.9288 198.976 31.5288 200.176 32.7288C200.512 33.1368 200.992 33.5328 201.616 33.9168C202.24 34.2768 202.816 34.4568 203.344 34.4568C205.576 34.4568 206.692 33.5448 206.692 31.7208C206.692 31.1688 206.38 30.7128 205.756 30.3528C205.156 29.9688 204.4 29.6928 203.488 29.5248C202.576 29.3568 201.592 29.0928 200.536 28.7328C199.48 28.3488 198.496 27.9048 197.584 27.4008C196.672 26.8968 195.904 26.1048 195.28 25.0248C194.68 23.9208 194.38 22.6008 194.38 21.0648C194.38 18.9528 195.16 17.1168 196.72 15.5568C198.304 13.9728 200.452 13.1808 203.164 13.1808C204.604 13.1808 205.912 13.3728 207.088 13.7568C208.288 14.1168 209.116 14.4888 209.572 14.8728L210.472 15.5568C211.216 16.2528 211.588 16.8408 211.588 17.3208C211.588 17.8008 211.3 18.4608 210.724 19.3008C209.908 20.5008 209.068 21.1008 208.204 21.1008C207.7 21.1008 207.076 20.8608 206.332 20.3808C206.26 20.3328 206.116 20.2128 205.9 20.0208C205.708 19.8288 205.528 19.6728 205.36 19.5528C204.856 19.2408 204.208 19.0848 203.416 19.0848C202.648 19.0848 202 19.2768 201.472 19.6608C200.968 20.0208 200.716 20.5368 200.716 21.2088C200.716 21.8568 201.016 22.3848 201.616 22.7928C202.24 23.2008 203.008 23.4768 203.92 23.6208C204.832 23.7648 205.828 23.9928 206.908 24.3048C207.988 24.5928 208.984 24.9528 209.896 25.3848C210.808 25.8168 211.564 26.5728 212.164 27.6528C212.788 28.7088 213.1 30.0168 213.1 31.5768C213.1 33.1368 212.788 34.5168 212.164 35.7168C211.54 36.8928 210.724 37.8048 209.716 38.4528C207.772 39.7248 205.696 40.3608 203.488 40.3608C202.36 40.3608 201.292 40.2288 200.284 39.9648C199.276 39.6768 198.46 39.3288 197.836 38.9208C196.564 38.1528 195.676 37.4088 195.172 36.6888L194.848 36.2928Z"/>
</mask>
<path d="M99.8236 14.7288C100.064 14.2968 100.412 14.0088 100.868 13.8648C101.324 13.7208 101.888 13.6488 102.56 13.6488C103.256 13.6488 103.808 13.7088 104.216 13.8288C104.648 13.9488 104.96 14.0928 105.152 14.2608C105.368 14.4288 105.524 14.6808 105.62 15.0168C105.764 15.4008 105.836 16.0128 105.836 16.8528V36.8328C105.836 37.4088 105.812 37.8288 105.764 38.0928C105.74 38.3568 105.632 38.6688 105.44 39.0288C105.104 39.6768 104.168 40.0008 102.632 40.0008C101.696 40.0008 101.048 39.9288 100.688 39.7848C100.328 39.6408 100.028 39.4128 99.7876 39.1008C94.3876 31.9008 90.8356 27.1968 89.1316 24.9888V36.8328C89.1316 37.4088 89.1076 37.8288 89.0596 38.0928C89.0356 38.3568 88.9276 38.6688 88.7356 39.0288C88.3996 39.6768 87.4636 40.0008 85.9276 40.0008C84.4396 40.0008 83.5276 39.6768 83.1916 39.0288C82.9996 38.6688 82.8796 38.3448 82.8316 38.0568C82.8076 37.7688 82.7956 37.3488 82.7956 36.7968V16.7088C82.7956 15.7968 82.9036 15.1368 83.1196 14.7288C83.3596 14.2968 83.7076 14.0088 84.1636 13.8648C84.6196 13.7208 85.2076 13.6488 85.9276 13.6488C86.6476 13.6488 87.2116 13.7208 87.6196 13.8648C88.0516 13.9848 88.3516 14.1288 88.5196 14.2968C88.6156 14.3688 88.8916 14.6808 89.3476 15.2328C94.4116 22.1208 97.7956 26.6688 99.4996 28.8768V16.7088C99.4996 15.7968 99.6076 15.1368 99.8236 14.7288Z" fill="white"/>
<path d="M108.706 16.7808C108.706 16.2288 108.718 15.8208 108.742 15.5568C108.79 15.2688 108.91 14.9448 109.102 14.5848C109.438 13.9368 110.374 13.6128 111.91 13.6128C113.59 13.6128 114.586 14.0568 114.898 14.9448C115.018 15.3528 115.078 15.9768 115.078 16.8168V36.8328C115.078 37.4088 115.054 37.8288 115.006 38.0928C114.982 38.3568 114.874 38.6688 114.682 39.0288C114.346 39.6768 113.41 40.0008 111.874 40.0008C110.194 40.0008 109.21 39.5448 108.922 38.6328C108.778 38.2488 108.706 37.6368 108.706 36.7968V16.7808Z" fill="white"/>
<path d="M131.704 24.0888H138.04C139.336 24.1368 140.128 24.4728 140.416 25.0968C140.656 25.5528 140.776 26.2248 140.776 27.1128V35.0328C140.776 35.8008 140.44 36.5328 139.768 37.2288C137.752 39.3168 134.728 40.3608 130.696 40.3608C127.12 40.3608 124.012 39.0168 121.372 36.3288C118.732 33.6168 117.412 30.3528 117.412 26.5368C117.412 22.7208 118.756 19.5408 121.444 16.9968C124.132 14.4288 127.3 13.1448 130.948 13.1448C133.78 13.1448 136.456 14.0808 138.976 15.9528C139.624 16.4328 139.948 16.9728 139.948 17.5728C139.948 18.1488 139.672 18.8208 139.12 19.5888C138.184 20.8608 137.332 21.4968 136.564 21.4968C136.108 21.4968 135.376 21.1728 134.368 20.5248C133.36 19.8528 132.16 19.5168 130.768 19.5168C128.944 19.5168 127.324 20.1648 125.908 21.4608C124.492 22.7328 123.784 24.4128 123.784 26.5008C123.784 28.5648 124.504 30.3288 125.944 31.7928C127.384 33.2328 129.016 33.9528 130.84 33.9528C132.16 33.9528 133.348 33.7368 134.404 33.3048V29.3808H131.56C130.816 29.3808 130.288 29.2848 129.976 29.0928C129.664 28.9008 129.46 28.6248 129.364 28.2648C129.268 27.8808 129.22 27.3768 129.22 26.7528C129.22 26.1048 129.268 25.5888 129.364 25.2048C129.484 24.8208 129.688 24.5568 129.976 24.4128C130.408 24.1968 130.984 24.0888 131.704 24.0888Z" fill="white"/>
<path d="M159.959 14.5848C160.151 14.2248 160.475 13.9728 160.931 13.8288C161.387 13.6848 161.963 13.6128 162.659 13.6128C163.355 13.6128 163.907 13.6728 164.315 13.7928C164.723 13.9128 165.035 14.0568 165.251 14.2248C165.467 14.3928 165.635 14.6328 165.755 14.9448C165.875 15.3528 165.935 15.9768 165.935 16.8168V36.7968C165.935 37.3488 165.911 37.7688 165.863 38.0568C165.839 38.3208 165.731 38.6328 165.539 38.9928C165.203 39.6408 164.267 39.9648 162.731 39.9648C161.051 39.9648 160.067 39.5208 159.779 38.6328C159.635 38.2248 159.563 37.6008 159.563 36.7608V29.4528H150.023V36.7968C150.023 37.3488 149.999 37.7688 149.951 38.0568C149.927 38.3208 149.819 38.6328 149.627 38.9928C149.291 39.6408 148.355 39.9648 146.819 39.9648C145.139 39.9648 144.155 39.5208 143.867 38.6328C143.723 38.2248 143.651 37.6008 143.651 36.7608V16.7808C143.651 16.2288 143.663 15.8208 143.687 15.5568C143.735 15.2688 143.855 14.9448 144.047 14.5848C144.383 13.9368 145.319 13.6128 146.855 13.6128C148.535 13.6128 149.531 14.0568 149.843 14.9448C149.963 15.3528 150.023 15.9768 150.023 16.8168V24.1608H159.563V16.7808C159.563 16.2288 159.575 15.8208 159.599 15.5568C159.647 15.2688 159.767 14.9448 159.959 14.5848Z" fill="white"/>
<path d="M170.551 13.5768H190.567C191.335 13.5768 191.899 13.6728 192.259 13.8648C192.619 14.0328 192.859 14.3088 192.979 14.6928C193.099 15.0768 193.159 15.5808 193.159 16.2048C193.159 16.8288 193.099 17.3328 192.979 17.7168C192.859 18.0768 192.655 18.3288 192.367 18.4728C191.935 18.6888 191.323 18.7968 190.531 18.7968H183.655V36.9048C183.655 37.4568 183.631 37.8648 183.583 38.1288C183.559 38.3928 183.451 38.7048 183.259 39.0648C183.091 39.4008 182.779 39.6408 182.323 39.7848C181.867 39.9288 181.267 40.0008 180.523 40.0008C179.779 40.0008 179.179 39.9288 178.723 39.7848C178.291 39.6408 177.979 39.4008 177.787 39.0648C177.619 38.7048 177.511 38.3928 177.463 38.1288C177.439 37.8408 177.427 37.4208 177.427 36.8688V18.7968H170.515C169.747 18.7968 169.183 18.7128 168.823 18.5448C168.463 18.3528 168.223 18.0648 168.103 17.6808C167.983 17.2968 167.923 16.7928 167.923 16.1688C167.923 15.5448 167.983 15.0528 168.103 14.6928C168.223 14.3088 168.427 14.0448 168.715 13.9008C169.147 13.6848 169.759 13.5768 170.551 13.5768Z" fill="white"/>
<path d="M194.848 36.2928C194.224 35.5248 193.912 34.8408 193.912 34.2408C193.912 33.6168 194.428 32.8008 195.46 31.7928C196.06 31.2168 196.696 30.9288 197.368 30.9288C198.04 30.9288 198.976 31.5288 200.176 32.7288C200.512 33.1368 200.992 33.5328 201.616 33.9168C202.24 34.2768 202.816 34.4568 203.344 34.4568C205.576 34.4568 206.692 33.5448 206.692 31.7208C206.692 31.1688 206.38 30.7128 205.756 30.3528C205.156 29.9688 204.4 29.6928 203.488 29.5248C202.576 29.3568 201.592 29.0928 200.536 28.7328C199.48 28.3488 198.496 27.9048 197.584 27.4008C196.672 26.8968 195.904 26.1048 195.28 25.0248C194.68 23.9208 194.38 22.6008 194.38 21.0648C194.38 18.9528 195.16 17.1168 196.72 15.5568C198.304 13.9728 200.452 13.1808 203.164 13.1808C204.604 13.1808 205.912 13.3728 207.088 13.7568C208.288 14.1168 209.116 14.4888 209.572 14.8728L210.472 15.5568C211.216 16.2528 211.588 16.8408 211.588 17.3208C211.588 17.8008 211.3 18.4608 210.724 19.3008C209.908 20.5008 209.068 21.1008 208.204 21.1008C207.7 21.1008 207.076 20.8608 206.332 20.3808C206.26 20.3328 206.116 20.2128 205.9 20.0208C205.708 19.8288 205.528 19.6728 205.36 19.5528C204.856 19.2408 204.208 19.0848 203.416 19.0848C202.648 19.0848 202 19.2768 201.472 19.6608C200.968 20.0208 200.716 20.5368 200.716 21.2088C200.716 21.8568 201.016 22.3848 201.616 22.7928C202.24 23.2008 203.008 23.4768 203.92 23.6208C204.832 23.7648 205.828 23.9928 206.908 24.3048C207.988 24.5928 208.984 24.9528 209.896 25.3848C210.808 25.8168 211.564 26.5728 212.164 27.6528C212.788 28.7088 213.1 30.0168 213.1 31.5768C213.1 33.1368 212.788 34.5168 212.164 35.7168C211.54 36.8928 210.724 37.8048 209.716 38.4528C207.772 39.7248 205.696 40.3608 203.488 40.3608C202.36 40.3608 201.292 40.2288 200.284 39.9648C199.276 39.6768 198.46 39.3288 197.836 38.9208C196.564 38.1528 195.676 37.4088 195.172 36.6888L194.848 36.2928Z" fill="white"/>
<path d="M99.8236 14.7288C100.064 14.2968 100.412 14.0088 100.868 13.8648C101.324 13.7208 101.888 13.6488 102.56 13.6488C103.256 13.6488 103.808 13.7088 104.216 13.8288C104.648 13.9488 104.96 14.0928 105.152 14.2608C105.368 14.4288 105.524 14.6808 105.62 15.0168C105.764 15.4008 105.836 16.0128 105.836 16.8528V36.8328C105.836 37.4088 105.812 37.8288 105.764 38.0928C105.74 38.3568 105.632 38.6688 105.44 39.0288C105.104 39.6768 104.168 40.0008 102.632 40.0008C101.696 40.0008 101.048 39.9288 100.688 39.7848C100.328 39.6408 100.028 39.4128 99.7876 39.1008C94.3876 31.9008 90.8356 27.1968 89.1316 24.9888V36.8328C89.1316 37.4088 89.1076 37.8288 89.0596 38.0928C89.0356 38.3568 88.9276 38.6688 88.7356 39.0288C88.3996 39.6768 87.4636 40.0008 85.9276 40.0008C84.4396 40.0008 83.5276 39.6768 83.1916 39.0288C82.9996 38.6688 82.8796 38.3448 82.8316 38.0568C82.8076 37.7688 82.7956 37.3488 82.7956 36.7968V16.7088C82.7956 15.7968 82.9036 15.1368 83.1196 14.7288C83.3596 14.2968 83.7076 14.0088 84.1636 13.8648C84.6196 13.7208 85.2076 13.6488 85.9276 13.6488C86.6476 13.6488 87.2116 13.7208 87.6196 13.8648C88.0516 13.9848 88.3516 14.1288 88.5196 14.2968C88.6156 14.3688 88.8916 14.6808 89.3476 15.2328C94.4116 22.1208 97.7956 26.6688 99.4996 28.8768V16.7088C99.4996 15.7968 99.6076 15.1368 99.8236 14.7288Z" stroke="black" stroke-width="2" mask="url(#path-11-outside-2)"/>
<path d="M108.706 16.7808C108.706 16.2288 108.718 15.8208 108.742 15.5568C108.79 15.2688 108.91 14.9448 109.102 14.5848C109.438 13.9368 110.374 13.6128 111.91 13.6128C113.59 13.6128 114.586 14.0568 114.898 14.9448C115.018 15.3528 115.078 15.9768 115.078 16.8168V36.8328C115.078 37.4088 115.054 37.8288 115.006 38.0928C114.982 38.3568 114.874 38.6688 114.682 39.0288C114.346 39.6768 113.41 40.0008 111.874 40.0008C110.194 40.0008 109.21 39.5448 108.922 38.6328C108.778 38.2488 108.706 37.6368 108.706 36.7968V16.7808Z" stroke="black" stroke-width="2" mask="url(#path-11-outside-2)"/>
<path d="M131.704 24.0888H138.04C139.336 24.1368 140.128 24.4728 140.416 25.0968C140.656 25.5528 140.776 26.2248 140.776 27.1128V35.0328C140.776 35.8008 140.44 36.5328 139.768 37.2288C137.752 39.3168 134.728 40.3608 130.696 40.3608C127.12 40.3608 124.012 39.0168 121.372 36.3288C118.732 33.6168 117.412 30.3528 117.412 26.5368C117.412 22.7208 118.756 19.5408 121.444 16.9968C124.132 14.4288 127.3 13.1448 130.948 13.1448C133.78 13.1448 136.456 14.0808 138.976 15.9528C139.624 16.4328 139.948 16.9728 139.948 17.5728C139.948 18.1488 139.672 18.8208 139.12 19.5888C138.184 20.8608 137.332 21.4968 136.564 21.4968C136.108 21.4968 135.376 21.1728 134.368 20.5248C133.36 19.8528 132.16 19.5168 130.768 19.5168C128.944 19.5168 127.324 20.1648 125.908 21.4608C124.492 22.7328 123.784 24.4128 123.784 26.5008C123.784 28.5648 124.504 30.3288 125.944 31.7928C127.384 33.2328 129.016 33.9528 130.84 33.9528C132.16 33.9528 133.348 33.7368 134.404 33.3048V29.3808H131.56C130.816 29.3808 130.288 29.2848 129.976 29.0928C129.664 28.9008 129.46 28.6248 129.364 28.2648C129.268 27.8808 129.22 27.3768 129.22 26.7528C129.22 26.1048 129.268 25.5888 129.364 25.2048C129.484 24.8208 129.688 24.5568 129.976 24.4128C130.408 24.1968 130.984 24.0888 131.704 24.0888Z" stroke="black" stroke-width="2" mask="url(#path-11-outside-2)"/>
<path d="M159.959 14.5848C160.151 14.2248 160.475 13.9728 160.931 13.8288C161.387 13.6848 161.963 13.6128 162.659 13.6128C163.355 13.6128 163.907 13.6728 164.315 13.7928C164.723 13.9128 165.035 14.0568 165.251 14.2248C165.467 14.3928 165.635 14.6328 165.755 14.9448C165.875 15.3528 165.935 15.9768 165.935 16.8168V36.7968C165.935 37.3488 165.911 37.7688 165.863 38.0568C165.839 38.3208 165.731 38.6328 165.539 38.9928C165.203 39.6408 164.267 39.9648 162.731 39.9648C161.051 39.9648 160.067 39.5208 159.779 38.6328C159.635 38.2248 159.563 37.6008 159.563 36.7608V29.4528H150.023V36.7968C150.023 37.3488 149.999 37.7688 149.951 38.0568C149.927 38.3208 149.819 38.6328 149.627 38.9928C149.291 39.6408 148.355 39.9648 146.819 39.9648C145.139 39.9648 144.155 39.5208 143.867 38.6328C143.723 38.2248 143.651 37.6008 143.651 36.7608V16.7808C143.651 16.2288 143.663 15.8208 143.687 15.5568C143.735 15.2688 143.855 14.9448 144.047 14.5848C144.383 13.9368 145.319 13.6128 146.855 13.6128C148.535 13.6128 149.531 14.0568 149.843 14.9448C149.963 15.3528 150.023 15.9768 150.023 16.8168V24.1608H159.563V16.7808C159.563 16.2288 159.575 15.8208 159.599 15.5568C159.647 15.2688 159.767 14.9448 159.959 14.5848Z" stroke="black" stroke-width="2" mask="url(#path-11-outside-2)"/>
<path d="M170.551 13.5768H190.567C191.335 13.5768 191.899 13.6728 192.259 13.8648C192.619 14.0328 192.859 14.3088 192.979 14.6928C193.099 15.0768 193.159 15.5808 193.159 16.2048C193.159 16.8288 193.099 17.3328 192.979 17.7168C192.859 18.0768 192.655 18.3288 192.367 18.4728C191.935 18.6888 191.323 18.7968 190.531 18.7968H183.655V36.9048C183.655 37.4568 183.631 37.8648 183.583 38.1288C183.559 38.3928 183.451 38.7048 183.259 39.0648C183.091 39.4008 182.779 39.6408 182.323 39.7848C181.867 39.9288 181.267 40.0008 180.523 40.0008C179.779 40.0008 179.179 39.9288 178.723 39.7848C178.291 39.6408 177.979 39.4008 177.787 39.0648C177.619 38.7048 177.511 38.3928 177.463 38.1288C177.439 37.8408 177.427 37.4208 177.427 36.8688V18.7968H170.515C169.747 18.7968 169.183 18.7128 168.823 18.5448C168.463 18.3528 168.223 18.0648 168.103 17.6808C167.983 17.2968 167.923 16.7928 167.923 16.1688C167.923 15.5448 167.983 15.0528 168.103 14.6928C168.223 14.3088 168.427 14.0448 168.715 13.9008C169.147 13.6848 169.759 13.5768 170.551 13.5768Z" stroke="black" stroke-width="2" mask="url(#path-11-outside-2)"/>
<path d="M194.848 36.2928C194.224 35.5248 193.912 34.8408 193.912 34.2408C193.912 33.6168 194.428 32.8008 195.46 31.7928C196.06 31.2168 196.696 30.9288 197.368 30.9288C198.04 30.9288 198.976 31.5288 200.176 32.7288C200.512 33.1368 200.992 33.5328 201.616 33.9168C202.24 34.2768 202.816 34.4568 203.344 34.4568C205.576 34.4568 206.692 33.5448 206.692 31.7208C206.692 31.1688 206.38 30.7128 205.756 30.3528C205.156 29.9688 204.4 29.6928 203.488 29.5248C202.576 29.3568 201.592 29.0928 200.536 28.7328C199.48 28.3488 198.496 27.9048 197.584 27.4008C196.672 26.8968 195.904 26.1048 195.28 25.0248C194.68 23.9208 194.38 22.6008 194.38 21.0648C194.38 18.9528 195.16 17.1168 196.72 15.5568C198.304 13.9728 200.452 13.1808 203.164 13.1808C204.604 13.1808 205.912 13.3728 207.088 13.7568C208.288 14.1168 209.116 14.4888 209.572 14.8728L210.472 15.5568C211.216 16.2528 211.588 16.8408 211.588 17.3208C211.588 17.8008 211.3 18.4608 210.724 19.3008C209.908 20.5008 209.068 21.1008 208.204 21.1008C207.7 21.1008 207.076 20.8608 206.332 20.3808C206.26 20.3328 206.116 20.2128 205.9 20.0208C205.708 19.8288 205.528 19.6728 205.36 19.5528C204.856 19.2408 204.208 19.0848 203.416 19.0848C202.648 19.0848 202 19.2768 201.472 19.6608C200.968 20.0208 200.716 20.5368 200.716 21.2088C200.716 21.8568 201.016 22.3848 201.616 22.7928C202.24 23.2008 203.008 23.4768 203.92 23.6208C204.832 23.7648 205.828 23.9928 206.908 24.3048C207.988 24.5928 208.984 24.9528 209.896 25.3848C210.808 25.8168 211.564 26.5728 212.164 27.6528C212.788 28.7088 213.1 30.0168 213.1 31.5768C213.1 33.1368 212.788 34.5168 212.164 35.7168C211.54 36.8928 210.724 37.8048 209.716 38.4528C207.772 39.7248 205.696 40.3608 203.488 40.3608C202.36 40.3608 201.292 40.2288 200.284 39.9648C199.276 39.6768 198.46 39.3288 197.836 38.9208C196.564 38.1528 195.676 37.4088 195.172 36.6888L194.848 36.2928Z" stroke="black" stroke-width="2" mask="url(#path-11-outside-2)"/>
<path d="M59.6011 26.1985L70.0328 38.155C70.0334 38.1557 70.034 38.1564 70.0346 38.1571C70.6666 38.8977 71.2677 39.4741 71.8383 39.8688C72.4065 40.2618 72.9813 40.5 73.5496 40.5C74.6331 40.5 75.8845 39.8053 77.268 38.6239L77.268 38.624L77.2734 38.6192C77.978 37.9999 78.5268 37.4075 78.9024 36.8414C79.2768 36.2772 79.5 35.7076 79.5 35.1444C79.5 34.0567 78.8263 32.8533 77.6796 31.5609C75.5223 29.0555 71.9148 25.3585 66.8673 20.4764L68.5473 18.873L68.549 18.8713C72.7342 14.8392 75.8326 11.6582 77.8362 9.33302L77.8378 9.33116C78.886 8.1026 79.5 6.95285 79.5 5.90729C79.5 4.77267 78.6516 3.60981 77.2707 2.43002C75.8899 1.2168 74.6376 0.5 73.5496 0.5C72.9708 0.5 72.3897 0.728576 71.8173 1.11509C71.2439 1.50226 70.6494 2.0677 70.0328 2.79335C67.3382 5.95154 63.8611 9.94127 59.6011 14.7631V6.21722C59.6011 5.00119 59.516 4.04709 59.3238 3.39064L59.3202 3.37825L59.3159 3.36606C58.7549 1.76177 57.0069 1.11987 54.5762 1.11987C53.4507 1.11987 52.506 1.23826 51.764 1.49628C51.0191 1.75531 50.4399 2.17 50.1227 2.78255C49.8331 3.32853 49.6382 3.84509 49.5582 4.32744L49.5551 4.34574L49.5535 4.36421C49.517 4.76669 49.5 5.3709 49.5 6.16556V34.8861C49.5 36.094 49.6001 37.0436 49.8355 37.683C50.3593 39.3246 52.0972 39.9834 54.5248 39.9834C55.6504 39.9834 56.5951 39.8651 57.3371 39.607C58.082 39.348 58.6612 38.9333 58.9784 38.3207C59.2634 37.7834 59.4477 37.2773 59.494 36.8133C59.5684 36.3876 59.6011 35.7544 59.6011 34.9377V26.1985Z" fill="white" stroke="black"/>
<defs>
<linearGradient id="paint0_linear" x1="305.617" y1="34.75" x2="252.199" y2="44.8078" gradientUnits="userSpaceOnUse">
<stop offset="0.25" stop-color="white"/>
<stop offset="0.526142" stop-color="white" stop-opacity="0"/>
</linearGradient>
<linearGradient id="paint1_linear" x1="128.5" y1="40" x2="128.5" y2="53" gradientUnits="userSpaceOnUse">
<stop offset="0.824685" stop-color="#DFDFDF"/>
<stop offset="0.908458" stop-color="white" stop-opacity="0"/>
</linearGradient>
<radialGradient id="paint2_angular" cx="0" cy="0" r="1" gradientUnits="userSpaceOnUse" gradientTransform="translate(130.5 51) rotate(90) scale(10.5 122.659)">
<stop offset="0.060128" stop-color="white" stop-opacity="0"/>
<stop offset="0.516689" stop-color="#DFDFDF"/>
</radialGradient>
</defs>
</svg>
